<?xml version="1.0" encoding="utf-8"?>
<!-- Generator: Adobe Illustrator 18.1.1, SVG Export Plug-In . SVG Version: 6.00 Build 0)  -->
<svg version="1.1" id="logo_h" xmlns="http://www.w3.org/2000/svg" xmlns:xlink="http://www.w3.org/1999/xlink" x="0px" y="0px"
	 viewBox="0 240.5 792 137.5" enable-background="new 0 240.5 792 137.5" xml:space="preserve">
<g>
	<polygon fill="#269CCE" points="661.3,329.7 642.9,329.7 726.1,243.2 744.6,243.2 	"/>
	<path fill="#004A65" d="M773.3,253.7h-69.1l-4.8,12.9h30.3l-13.1,35.1L668,255.5c-1.6-1.6-3.7-2.1-5.9-1.6c-2.1,0.5-3.7,1.9-4.6,4
		l-15.3,40.7l-26-41.8c-1.3-2.1-3.7-3.2-6.2-2.9c-2.4,0.3-4.6,1.9-5.4,4l-22.5,60.5H596l16.1-43.6l26,41.8c1.3,2.1,3.7,3.2,6.2,2.9
		c2.4-0.3,4.6-1.9,5.4-4l16.3-43.9l48.5,46.3c1.3,1.1,2.7,1.9,4.6,1.9c0.5,0,1.1,0,1.3-0.3c2.1-0.5,3.7-1.9,4.6-4l18.2-48.7h25.2
		L773.3,253.7z"/>
	<g>
		<polygon fill="#269CCE" points="696.4,274.3 642.9,329.7 661.3,329.7 714.9,274.3" class="svg_tl"/>
	</g>
	<polygon fill="#004A65" points="574.9,337.9 174.9,337.9 160.8,375.3 560.9,375.3" class="svg_tl"/>
	<g>
		<path fill="#FFFFFF" d="M214.3,349.6h3.4l1.7,6.9c0.3,1,0.3,2.1,0.3,2.1l0,0l2.7-8.9h3.4l-4.1,14.1h-3.4l-1.7-6.5
			c-0.3-1-0.3-2.1-0.3-2.1l0,0l-2.7,8.9h-3.4L214.3,349.6z"/>
		<path fill="#FFFFFF" d="M235.2,349.6h3.4l1,14.1h-3.4v-2.4h-4.8l-1.4,2.4h-3.4L235.2,349.6z M232.8,358.5h3.1v-3.4
			c0-0.7,0-2.1,0-2.1l0,0c0,0-0.7,1.4-1,2.1L232.8,358.5z"/>
		<path fill="#FFFFFF" d="M249.3,352.7h-3.8l0.7-2.7h11.3l-0.7,2.7h-4.1l-3.4,11h-3.4L249.3,352.7z"/>
		<path fill="#FFFFFF" d="M259.9,358.1l2.7-8.6h3.4l-2.7,8.9c-0.3,1.4,0,2.4,1.7,2.4c1.4,0,2.4-0.7,2.7-2.1l2.7-9.3h3.4l-2.7,9.3
			c-1,3.1-3.1,4.8-6.5,4.8C261.3,364,258.9,362.3,259.9,358.1z"/>
		<path fill="#FFFFFF" d="M279.8,349.6h5.8c2.7,0,4.5,1.4,4.1,3.8c-0.3,2.1-1.4,3.1-3.4,3.8l0,0c1,0.3,1.4,1.4,1.4,2.7
			c0,0.7-0.3,1.7-0.3,2.7c0,0.3,0,0.7,0.3,1v0.3h-3.4c0-0.3,0-0.7,0-1c0-0.7,0.3-1.7,0.3-2.4c0-1-0.3-1.7-1.7-1.7h-2.1l-1.4,5.1H276
			L279.8,349.6z M281.2,355.7h2.4c1,0,2.4-0.7,2.4-2.1c0-1-0.3-1.4-1.4-1.4h-2.4L281.2,355.7z"/>
		<path fill="#FFFFFF" d="M300.4,349.6h3.4l1,14.1h-3.4v-2.4h-4.8l-1.4,2.4h-3.4L300.4,349.6z M298,358.5h3.1v-3.4
			c0-0.7,0-2.1,0-2.1l0,0c0,0-0.7,1.4-1,2.1L298,358.5z"/>
		<path fill="#FFFFFF" d="M313.7,349.6h3.4l-3.4,11h5.8l-0.7,2.7h-9.3L313.7,349.6z"/>
		<path fill="#FFFFFF" d="M332.2,357.8c0.3-4.5,3.8-8.6,8.2-8.6c3.8,0,5.8,2.4,5.5,6.2c-0.3,4.5-3.8,8.2-8.2,8.2
			C334.3,364,331.9,361.9,332.2,357.8z M342.5,355.7c0.3-2.1-0.3-3.4-2.4-3.4c-2.7,0-4.1,3.1-4.5,5.5c-0.3,1.7,0.3,3.4,2.4,3.4
			C341.1,361.2,342.5,358.1,342.5,355.7z"/>
		<path fill="#FFFFFF" d="M353.1,349.6h5.1c3.4,0,5.5,2.1,5.1,5.8c-0.3,2.4-1,4.5-2.7,5.8c-1.4,1.4-3.4,2.1-5.8,2.1h-6.2
			L353.1,349.6z M355.5,360.9c2.4,0,4.1-2.1,4.5-4.8c0.3-2.1-0.7-3.1-2.7-3.1h-1.7l-2.4,8.2h2.4V360.9z"/>
		<path fill="#FFFFFF" d="M367.5,357.8c0.3-4.5,3.8-8.6,8.2-8.6c3.8,0,5.8,2.4,5.5,6.2c-0.3,4.5-3.8,8.2-8.2,8.2
			C369.6,364,367.2,361.9,367.5,357.8z M378.2,355.7c0.3-2.1-0.3-3.4-2.4-3.4c-2.7,0-4.1,3.1-4.5,5.5c-0.3,1.7,0.3,3.4,2.4,3.4
			C376.5,361.2,377.8,358.1,378.2,355.7z"/>
		<path fill="#FFFFFF" d="M388.5,349.6h5.8c2.7,0,4.5,1.4,4.1,3.8c-0.3,2.1-1.4,3.1-3.4,3.8l0,0c1,0.3,1.4,1.4,1.4,2.7
			c0,0.7-0.3,1.7-0.3,2.7c0,0.3,0,0.7,0.3,1v0.3h-3.4c0-0.3,0-0.7,0-1c0-0.7,0.3-1.7,0.3-2.4c0-1-0.3-1.7-1.7-1.7h-2.1l-1.4,5.1
			h-3.4L388.5,349.6z M390.2,355.7h2.4c1,0,2.4-0.7,2.4-2.1c0-1-0.3-1.4-1.4-1.4h-2.4L390.2,355.7z"/>
		<path fill="#FFFFFF" d="M409.4,357.8c0.3-4.5,3.8-8.6,8.2-8.6c1.7,0,2.7,0.3,3.8,1c1,0.7,1.4,2.1,1.4,4.1h-3.4
			c0-1.4-0.7-2.1-2.1-2.1c-2.7,0-4.1,3.1-4.5,5.5c-0.3,1.7,0.3,3.4,2.4,3.4c1.4,0,2.7-0.7,3.1-2.4h3.4c-0.7,1.7-1.4,3.1-2.7,3.8
			c-1.4,1-2.7,1.4-4.1,1.4C411.1,364,409,361.6,409.4,357.8z"/>
		<path fill="#FFFFFF" d="M426.5,357.8c0.3-4.5,3.8-8.6,8.2-8.6c3.8,0,5.8,2.4,5.5,6.2c-0.3,4.5-3.8,8.2-8.2,8.2
			C428.6,364,426.2,361.9,426.5,357.8z M437.1,355.7c0.3-2.1-0.3-3.4-2.4-3.4c-2.7,0-4.1,3.1-4.5,5.5c-0.3,1.7,0.3,3.4,2.4,3.4
			C435.4,361.2,436.8,358.1,437.1,355.7z"/>
		<path fill="#FFFFFF" d="M447.4,349.6h3.4l1.7,6.9c0.3,1,0.3,2.1,0.3,2.1l0,0l2.7-8.9h3.4l-4.1,14.1h-3.4l-1.7-6.5
			c-0.3-1-0.3-2.1-0.3-2.1l0,0l-2.7,8.9h-3.4L447.4,349.6z"/>
		<path fill="#FFFFFF" d="M467.3,352.7h-3.8l0.7-2.7h11.3l-0.7,2.7h-4.1l-3.4,11h-3.4L467.3,352.7z"/>
		<path fill="#FFFFFF" d="M480.7,349.6h5.8c2.7,0,4.5,1.4,4.1,3.8c-0.3,2.1-1.4,3.1-3.4,3.8l0,0c1,0.3,1.4,1.4,1.4,2.7
			c0,0.7-0.3,1.7-0.3,2.7c0,0.3,0,0.7,0.3,1v0.3h-3.4c0-0.3,0-0.7,0-1c0-0.7,0.3-1.7,0.3-2.4c0-1-0.3-1.7-1.7-1.7h-2.1l-1.4,5.1
			h-3.4L480.7,349.6z M482,355.7h2.4c1,0,2.4-0.7,2.4-2.1c0-1-0.3-1.4-1.4-1.4h-2.4L482,355.7z"/>
		<path fill="#FFFFFF" d="M494.4,357.8c0.3-4.5,3.8-8.6,8.2-8.6c3.8,0,5.8,2.4,5.5,6.2c-0.3,4.5-3.8,8.2-8.2,8.2
			C496.1,364,493.7,361.9,494.4,357.8z M504.7,355.7c0.3-2.1-0.3-3.4-2.4-3.4c-2.7,0-4.1,3.1-4.5,5.5c-0.3,1.7,0.3,3.4,2.4,3.4
			C503,361.2,504.3,358.1,504.7,355.7z"/>
		<path fill="#FFFFFF" d="M515.3,349.6h3.4l-3.4,11h5.8l-0.7,2.7h-9.3L515.3,349.6z"/>
	</g>
	
		<text transform="matrix(0.9945 0 -0.1045 0.9945 775.2502 260.2667)" fill="#004A65" font-family="'NHaasGroteskDSPro-46LtIt'" font-size="8.9313">TM</text>
	<g>
		<path fill="#889EA6" d="M7.8,292.7c3.5-19.8,19.5-40.2,41.8-40.2c13.1,0,22,6.7,20.3,22H57c0.5-7.5-2.7-11-10.2-11
			c-14.2,0-23.3,15.5-25.4,28.9c-1.6,9.1,0.8,17.1,11.8,17.1c7.8,0,13.7-4.3,17.1-11.5h12.9c-2.9,7-7.2,12.9-13.1,16.6
			c-6.2,4-12,5.6-19.8,5.6C12.6,320.3,5.1,308.5,7.8,292.7z"/>
		<path fill="#889EA6" d="M84.6,253.9h13.1L77.9,308h29.2l-4,11H61L84.6,253.9z"/>
		<path fill="#889EA6" d="M132.5,253.9h45.5l-4,11h-32.4l-5.4,14.7h28.4l-4,10.7h-28.1l-6.7,17.7H159l-4,11H109L132.5,253.9z"/>
		<path fill="#889EA6" d="M202.4,305.1h-22.5l-8.8,13.9H158l44.4-65.1h13.4l-0.3,65.1h-13.4L202.4,305.1z M186.4,294.9H203l0.8-18.2
			c0.3-3.7,1.1-10.4,1.1-10.4h-0.3c0,0-4,6.7-6.2,10.2L186.4,294.9z"/>
		<path fill="#889EA6" d="M243.4,253.9h13.1l7.2,36.4c0.8,4,1.1,9.4,1.1,9.4h0.3c0,0,2.1-6.7,3.7-11.2l12.3-34.5h12.6L269.9,319
			h-12.3l-7.8-36.1c-0.8-4.3-1.1-9.1-1.1-9.1h-0.3c0,0-2.1,7-3.7,11.5l-12.3,34h-12.9L243.4,253.9z"/>
		<path fill="#889EA6" d="M282.2,298.9h12.6c-1.9,8.3,3.7,11,12.3,11c6.4,0,12.9-2.4,13.9-8.6c0.8-4.6-1.9-6.4-12.3-10.4
			c-11-4.3-17.1-8.3-15.3-18.5c2.1-12.6,12.9-19.8,27.3-19.8c13.4,0,24.1,5.6,20.9,20.3h-12.6c1.3-6.4-2.4-9.9-10.4-9.9
			c-4.8,0-11.2,1.9-12.3,7.8c-0.8,4.3,1.9,5.6,11.8,9.1c12.3,4.6,18.2,9.4,16.6,19.8c-2.4,13.7-14.5,20.9-29.5,20.9
			C290,320.3,279,313.9,282.2,298.9z"/>
		<path fill="#889EA6" d="M357.7,253.9h25.2c12.6,0,19.5,7,17.4,19.3c-2.4,13.9-13.9,22.2-28.4,22.2h-15.8l-8.6,23.6h-13.4
			L357.7,253.9z M360.1,284.7h13.1c6.2,0,12.3-3.2,13.7-11c0.8-5.4-1.6-8.6-7.5-8.6h-12L360.1,284.7z"/>
		<path fill="#889EA6" d="M398.4,292.5c3.5-20.9,19-39.9,41-39.9c16.9,0,26.2,11.2,23.3,28.4c-3.5,20.6-18.2,39.4-40.7,39.4
			C405.1,320.3,395.5,309.9,398.4,292.5z M424.4,309.6c14.7,0,22.5-15.8,24.9-28.4c1.6-10.2-1.6-17.9-12.6-17.9
			c-14.5,0-22.5,15.8-24.9,28.9C410.2,301.8,413.1,309.6,424.4,309.6z"/>
		<path fill="#889EA6" d="M479,253.9h26.2c12.9,0,18.5,7.2,16.9,17.4c-1.6,9.4-8.3,15-17.4,17.1v0.3c4.8,1.6,7.2,5.1,6.2,11.2
			c-0.5,3.7-2.4,9.4-3.2,14.5c-0.3,1.9-0.3,3.7,0.5,4.3v0.5h-12.6c-0.5-0.8-0.5-2.7-0.3-4.8c0.8-4,2.1-8.8,2.7-12.6
			c1.1-5.9-1.9-8.8-8.3-8.8h-11.8l-9.6,26.2h-13.1L479,253.9z M481.7,282.6h13.7c6.4,0,12.3-2.9,13.7-10.2c0.8-5.4-1.6-8.3-7.2-8.3
			h-13.1L481.7,282.6z"/>
		<path fill="#889EA6" d="M529.6,253.9h50.9l-4,11h-19L537.6,319h-13.1l19.8-54.1h-18.7L529.6,253.9z"/>
	</g>
</g>
</svg>
