<?xml version="1.0" encoding="utf-8"?>
<!-- Generator: Adobe Illustrator 18.1.1, SVG Export Plug-In . SVG Version: 6.00 Build 0)  -->
<svg version="1.1" id="Layer_1" xmlns="http://www.w3.org/2000/svg" xmlns:xlink="http://www.w3.org/1999/xlink" x="0px" y="0px"
	 viewBox="0 0 295.8 50.7" enable-background="new 0 0 295.8 50.7" xml:space="preserve">
<g>
	<polygon fill="#269CCE" points="247,34.2 240.1,34.2 271.2,1.9 278.1,1.9 	"/>
	<path fill="#004A65" d="M288.8,5.8h-25.8l-1.8,4.8h11.3l-4.9,13.1L249.5,6.5c-0.6-0.6-1.4-0.8-2.2-0.6c-0.8,0.2-1.4,0.7-1.7,1.5
		l-5.7,15.2l-9.7-15.6c-0.5-0.8-1.4-1.2-2.3-1.1c-0.9,0.1-1.7,0.7-2,1.5l-8.4,22.6h5.1l6-16.3l9.7,15.6c0.5,0.8,1.4,1.2,2.3,1.1
		c0.9-0.1,1.7-0.7,2-1.5l6.1-16.4l18.1,17.3c0.5,0.4,1,0.7,1.7,0.7c0.2,0,0.4,0,0.5-0.1c0.8-0.2,1.4-0.7,1.7-1.5l6.8-18.2h9.4
		L288.8,5.8z"/>
	<g>
		<polygon fill="#269CCE" points="260.1,13.5 240.1,34.2 247,34.2 267,13.5 		"/>
	</g>
	<polygon fill="#004A65" points="197.8,38.8 81.1,38.8 77,49.7 193.7,49.7 	"/>
	<g>
		<path fill="#FFFFFF" d="M92.6,42.2h1l0.5,2c0.1,0.3,0.1,0.6,0.1,0.6h0l0.8-2.6h1l-1.2,4.1h-1l-0.5-1.9c-0.1-0.3-0.1-0.6-0.1-0.6h0
			l-0.8,2.6h-1L92.6,42.2z"/>
		<path fill="#FFFFFF" d="M98.7,42.2h1l0.3,4.1h-1l0-0.7h-1.4l-0.4,0.7h-1L98.7,42.2z M98,44.8h0.9l0-1c0-0.2,0-0.6,0-0.6h0
			c0,0-0.2,0.4-0.3,0.6L98,44.8z"/>
		<path fill="#FFFFFF" d="M102.8,43.1h-1.1l0.2-0.8h3.3l-0.2,0.8h-1.2l-1,3.2h-1L102.8,43.1z"/>
		<path fill="#FFFFFF" d="M105.9,44.7l0.8-2.5h1l-0.8,2.6c-0.1,0.4,0,0.7,0.5,0.7c0.4,0,0.7-0.2,0.8-0.6l0.8-2.7h1l-0.8,2.7
			c-0.3,0.9-0.9,1.4-1.9,1.4C106.3,46.4,105.6,45.9,105.9,44.7z"/>
		<path fill="#FFFFFF" d="M111.7,42.2h1.7c0.8,0,1.3,0.4,1.2,1.1c-0.1,0.6-0.4,0.9-1,1.1l0,0c0.3,0.1,0.4,0.4,0.4,0.8
			c0,0.2-0.1,0.5-0.1,0.8c0,0.1,0,0.2,0.1,0.3l0,0.1h-1c0-0.1,0-0.2,0-0.3c0-0.2,0.1-0.5,0.1-0.7c0-0.3-0.1-0.5-0.5-0.5h-0.6
			l-0.4,1.5h-1L111.7,42.2z M112.1,44h0.7c0.3,0,0.7-0.2,0.7-0.6c0-0.3-0.1-0.4-0.4-0.4h-0.7L112.1,44z"/>
		<path fill="#FFFFFF" d="M117.7,42.2h1l0.3,4.1h-1l0-0.7h-1.4l-0.4,0.7h-1L117.7,42.2z M117,44.8h0.9l0-1c0-0.2,0-0.6,0-0.6h0
			c0,0-0.2,0.4-0.3,0.6L117,44.8z"/>
		<path fill="#FFFFFF" d="M121.6,42.2h1l-1,3.2h1.7l-0.2,0.8h-2.7L121.6,42.2z"/>
		<path fill="#FFFFFF" d="M127,44.6c0.1-1.3,1.1-2.5,2.4-2.5c1.1,0,1.7,0.7,1.6,1.8c-0.1,1.3-1.1,2.4-2.4,2.4
			C127.6,46.4,126.9,45.8,127,44.6z M130,44c0.1-0.6-0.1-1-0.7-1c-0.8,0-1.2,0.9-1.3,1.6c-0.1,0.5,0.1,1,0.7,1
			C129.6,45.6,130,44.7,130,44z"/>
		<path fill="#FFFFFF" d="M133.1,42.2h1.5c1,0,1.6,0.6,1.5,1.7c-0.1,0.7-0.3,1.3-0.8,1.7c-0.4,0.4-1,0.6-1.7,0.6h-1.8L133.1,42.2z
			 M133.8,45.5c0.7,0,1.2-0.6,1.3-1.4c0.1-0.6-0.2-0.9-0.8-0.9h-0.5l-0.7,2.4H133.8z"/>
		<path fill="#FFFFFF" d="M137.3,44.6c0.1-1.3,1.1-2.5,2.4-2.5c1.1,0,1.7,0.7,1.6,1.8c-0.1,1.3-1.1,2.4-2.4,2.4
			C137.9,46.4,137.2,45.8,137.3,44.6z M140.4,44c0.1-0.6-0.1-1-0.7-1c-0.8,0-1.2,0.9-1.3,1.6c-0.1,0.5,0.1,1,0.7,1
			C139.9,45.6,140.3,44.7,140.4,44z"/>
		<path fill="#FFFFFF" d="M143.4,42.2h1.7c0.8,0,1.3,0.4,1.2,1.1c-0.1,0.6-0.4,0.9-1,1.1l0,0c0.3,0.1,0.4,0.4,0.4,0.8
			c0,0.2-0.1,0.5-0.1,0.8c0,0.1,0,0.2,0.1,0.3l0,0.1h-1c0-0.1,0-0.2,0-0.3c0-0.2,0.1-0.5,0.1-0.7c0-0.3-0.1-0.5-0.5-0.5h-0.6
			l-0.4,1.5h-1L143.4,42.2z M143.9,44h0.7c0.3,0,0.7-0.2,0.7-0.6c0-0.3-0.1-0.4-0.4-0.4h-0.7L143.9,44z"/>
		<path fill="#FFFFFF" d="M149.5,44.6c0.1-1.3,1.1-2.5,2.4-2.5c0.5,0,0.8,0.1,1.1,0.3c0.3,0.2,0.4,0.6,0.4,1.2h-1
			c0-0.4-0.2-0.6-0.6-0.6c-0.8,0-1.2,0.9-1.3,1.6c-0.1,0.5,0.1,1,0.7,1c0.4,0,0.8-0.2,0.9-0.7h1c-0.2,0.5-0.4,0.9-0.8,1.1
			c-0.4,0.3-0.8,0.4-1.2,0.4C150,46.4,149.4,45.7,149.5,44.6z"/>
		<path fill="#FFFFFF" d="M154.5,44.6c0.1-1.3,1.1-2.5,2.4-2.5c1.1,0,1.7,0.7,1.6,1.8c-0.1,1.3-1.1,2.4-2.4,2.4
			C155.1,46.4,154.4,45.8,154.5,44.6z M157.6,44c0.1-0.6-0.1-1-0.7-1c-0.8,0-1.2,0.9-1.3,1.6c-0.1,0.5,0.1,1,0.7,1
			C157.1,45.6,157.5,44.7,157.6,44z"/>
		<path fill="#FFFFFF" d="M160.6,42.2h1l0.5,2c0.1,0.3,0.1,0.6,0.1,0.6h0l0.8-2.6h1l-1.2,4.1h-1l-0.5-1.9c-0.1-0.3-0.1-0.6-0.1-0.6
			h0l-0.8,2.6h-1L160.6,42.2z"/>
		<path fill="#FFFFFF" d="M166.4,43.1h-1.1l0.2-0.8h3.3l-0.2,0.8h-1.2l-1,3.2h-1L166.4,43.1z"/>
		<path fill="#FFFFFF" d="M170.3,42.2h1.7c0.8,0,1.3,0.4,1.2,1.1c-0.1,0.6-0.4,0.9-1,1.1l0,0c0.3,0.1,0.4,0.4,0.4,0.8
			c0,0.2-0.1,0.5-0.1,0.8c0,0.1,0,0.2,0.1,0.3l0,0.1h-1c0-0.1,0-0.2,0-0.3c0-0.2,0.1-0.5,0.1-0.7c0-0.3-0.1-0.5-0.5-0.5h-0.6
			l-0.4,1.5h-1L170.3,42.2z M170.7,44h0.7c0.3,0,0.7-0.2,0.7-0.6c0-0.3-0.1-0.4-0.4-0.4H171L170.7,44z"/>
		<path fill="#FFFFFF" d="M174.3,44.6c0.1-1.3,1.1-2.5,2.4-2.5c1.1,0,1.7,0.7,1.6,1.8c-0.1,1.3-1.1,2.4-2.4,2.4
			C174.8,46.4,174.1,45.8,174.3,44.6z M177.3,44c0.1-0.6-0.1-1-0.7-1c-0.8,0-1.2,0.9-1.3,1.6c-0.1,0.5,0.1,1,0.7,1
			C176.8,45.6,177.2,44.7,177.3,44z"/>
		<path fill="#FFFFFF" d="M180.4,42.2h1l-1,3.2h1.7l-0.2,0.8h-2.7L180.4,42.2z"/>
	</g>
	
		<text transform="matrix(0.9945 0 -0.1045 0.9945 289.5443 8.269)" fill="#004A65" font-family="'NHaasGroteskDSPro-46LtIt'" font-size="3.3358">TM</text>
	<g>
		<path fill="#889EA6" d="M2.9,20.4c1.3-7.4,7.3-15,15.6-15c4.9,0,8.2,2.5,7.6,8.2h-4.8c0.2-2.8-1-4.1-3.8-4.1
			c-5.3,0-8.7,5.8-9.5,10.8c-0.6,3.4,0.3,6.4,4.4,6.4c2.9,0,5.1-1.6,6.4-4.3h4.8c-1.1,2.6-2.7,4.8-4.9,6.2c-2.3,1.5-4.5,2.1-7.4,2.1
			C4.7,30.7,1.9,26.3,2.9,20.4z"/>
		<path fill="#889EA6" d="M31.6,5.9h4.9l-7.4,20.2H40l-1.5,4.1H22.8L31.6,5.9z"/>
		<path fill="#889EA6" d="M49.5,5.9h17L65,10H52.9l-2,5.5h10.6l-1.5,4H49.5L47,26.1h12.4l-1.5,4.1H40.7L49.5,5.9z"/>
		<path fill="#889EA6" d="M75.6,25h-8.4l-3.3,5.2h-4.9L75.6,5.9h5l-0.1,24.3h-5L75.6,25z M69.6,21.2h6.2l0.3-6.8
			c0.1-1.4,0.4-3.9,0.4-3.9h-0.1c0,0-1.5,2.5-2.3,3.8L69.6,21.2z"/>
		<path fill="#889EA6" d="M90.9,5.9h4.9l2.7,13.6c0.3,1.5,0.4,3.5,0.4,3.5h0.1c0,0,0.8-2.5,1.4-4.2L105,5.9h4.7l-8.9,24.3h-4.6
			l-2.9-13.5c-0.3-1.6-0.4-3.4-0.4-3.4h-0.1c0,0-0.8,2.6-1.4,4.3l-4.6,12.7H82L90.9,5.9z"/>
		<path fill="#889EA6" d="M105.4,22.7h4.7c-0.7,3.1,1.4,4.1,4.6,4.1c2.4,0,4.8-0.9,5.2-3.2c0.3-1.7-0.7-2.4-4.6-3.9
			c-4.1-1.6-6.4-3.1-5.7-6.9c0.8-4.7,4.8-7.4,10.2-7.4c5,0,9,2.1,7.8,7.6h-4.7c0.5-2.4-0.9-3.7-3.9-3.7c-1.8,0-4.2,0.7-4.6,2.9
			c-0.3,1.6,0.7,2.1,4.4,3.4c4.6,1.7,6.8,3.5,6.2,7.4c-0.9,5.1-5.4,7.8-11,7.8C108.3,30.7,104.2,28.3,105.4,22.7z"/>
		<path fill="#889EA6" d="M133.6,5.9h9.4c4.7,0,7.3,2.6,6.5,7.2c-0.9,5.2-5.2,8.3-10.6,8.3H133l-3.2,8.8h-5L133.6,5.9z M134.5,17.4
			h4.9c2.3,0,4.6-1.2,5.1-4.1c0.3-2-0.6-3.2-2.8-3.2h-4.5L134.5,17.4z"/>
		<path fill="#889EA6" d="M148.8,20.3c1.3-7.8,7.1-14.9,15.3-14.9c6.3,0,9.8,4.2,8.7,10.6c-1.3,7.7-6.8,14.7-15.2,14.7
			C151.3,30.7,147.7,26.8,148.8,20.3z M158.5,26.7c5.5,0,8.4-5.9,9.3-10.6c0.6-3.8-0.6-6.7-4.7-6.7c-5.4,0-8.4,5.9-9.3,10.8
			C153.2,23.8,154.3,26.7,158.5,26.7z"/>
		<path fill="#889EA6" d="M178.9,5.9h9.8c4.8,0,6.9,2.7,6.3,6.5c-0.6,3.5-3.1,5.6-6.5,6.4l0,0.1c1.8,0.6,2.7,1.9,2.3,4.2
			c-0.2,1.4-0.9,3.5-1.2,5.4c-0.1,0.7-0.1,1.4,0.2,1.6l0,0.2h-4.7c-0.2-0.3-0.2-1-0.1-1.8c0.3-1.5,0.8-3.3,1-4.7
			c0.4-2.2-0.7-3.3-3.1-3.3h-4.4l-3.6,9.8H170L178.9,5.9z M179.9,16.6h5.1c2.4,0,4.6-1.1,5.1-3.8c0.3-2-0.6-3.1-2.7-3.1h-4.9
			L179.9,16.6z"/>
		<path fill="#889EA6" d="M197.8,5.9h19l-1.5,4.1h-7.1l-7.4,20.2h-4.9l7.4-20.2h-7L197.8,5.9z"/>
	</g>
</g>
</svg>
