<?xml version="1.0" encoding="utf-8"?>
<!-- Generator: Adobe Illustrator 18.1.1, SVG Export Plug-In . SVG Version: 6.00 Build 0)  -->
<svg version="1.1" id="Layer_1" xmlns="http://www.w3.org/2000/svg" xmlns:xlink="http://www.w3.org/1999/xlink" x="0px" y="0px"
	 viewBox="0 0 437.8 111.6" enable-background="new 0 0 437.8 111.6" xml:space="preserve">
<polygon fill="#004A65" points="0,0 0,53.6 418.7,53.6 437.8,0 "/>
<polygon fill="#004A65" points="0,58 0,111.6 398.6,111.6 417.8,58 "/>
<g>
	<path fill="#FFFFFF" d="M118.6,20.7h-5.5l-4.4,15.8h-2.3l4.4-15.8h-5.5l0.5-1.9h13.3L118.6,20.7z"/>
	<path fill="#FFFFFF" d="M130.1,36.4h-2.3l2.3-8.2h-8.6l-2.3,8.2h-2.3l4.9-17.7h2.3l-2.1,7.6h8.6l2.1-7.6h2.3L130.1,36.4z"/>
	<path fill="#FFFFFF" d="M146.2,28.3h-7.4l-1.8,6.3h8.6l-0.5,1.9h-10.9l4.9-17.7h10.8l-0.5,1.9h-8.5l-1.6,5.7h7.4L146.2,28.3z"/>
	<path fill="#FFFFFF" d="M161.9,18.7l1.6,14.4l9.6-14.4h3l-4.9,17.7h-2.3l1.9-7l2.2-7.1l-9.5,14.1h-1.7L160.2,22l-1.9,7.6l-1.9,6.8
		h-2.3l4.9-17.7H161.9z"/>
	<path fill="#FFFFFF" d="M181.8,36.7c-1.1,0-2.1-0.3-2.8-0.8c-0.8-0.5-1.3-1.3-1.7-2.3c-0.4-1-0.5-2.1-0.4-3.4
		c0.1-1,0.3-2.2,0.7-3.6c0.4-1.4,1-2.7,1.8-3.9c0.8-1.2,1.7-2.1,2.7-2.8c1.4-0.9,2.9-1.4,4.5-1.4c1.7,0,3,0.6,3.9,1.8
		c0.9,1.2,1.2,2.7,1.1,4.7c-0.1,0.9-0.3,1.9-0.6,3.2c-0.3,1.3-0.8,2.5-1.5,3.7c-0.6,1.1-1.4,2.1-2.3,2.8
		C185.5,36.1,183.7,36.7,181.8,36.7z M189.1,25.6c0.2-1.6,0.1-2.8-0.4-3.7c-0.5-0.9-1.4-1.3-2.6-1.4c-1.1,0-2.1,0.3-3,0.9
		c-0.9,0.6-1.7,1.5-2.4,2.8c-0.7,1.2-1.2,2.8-1.5,4.7l-0.1,0.8c-0.2,1.6-0.1,2.8,0.5,3.7c0.5,0.9,1.4,1.4,2.5,1.4
		c1.5,0,2.9-0.5,4-1.7c1.1-1.1,2-2.8,2.5-4.8C188.8,27.2,189,26.3,189.1,25.6z"/>
	<path fill="#FFFFFF" d="M200.4,29.3h-4.1l-2,7.1H192l4.9-17.7l5.3,0c1.9,0,3.2,0.5,4.1,1.4c0.9,0.9,1.1,2.2,0.8,3.8
		c-0.2,1.1-0.7,2.1-1.5,2.9c-0.8,0.8-1.8,1.5-3.1,1.9l2,7.5l0,0.2h-2.4L200.4,29.3z M196.8,27.4l3.3,0c1.2,0,2.2-0.3,3-0.9
		c0.9-0.6,1.4-1.5,1.7-2.5c0.2-1,0.1-1.8-0.4-2.4c-0.5-0.6-1.2-0.9-2.3-0.9l-3.5,0L196.8,27.4z"/>
	<path fill="#FFFFFF" d="M219,28.3h-7.4l-1.8,6.3h8.6l-0.5,1.9H207l4.9-17.7h10.8l-0.5,1.9h-8.5l-1.6,5.7h7.4L219,28.3z"/>
	<path fill="#FFFFFF" d="M234.5,27.6l6.9-8.9h2.7L235.1,30l-1.8,6.5H231l1.9-6.7l-2.8-11h2.5L234.5,27.6z"/>
	<path fill="#FFFFFF" d="M247.6,36.7c-1.1,0-2.1-0.3-2.8-0.8c-0.8-0.5-1.3-1.3-1.7-2.3c-0.4-1-0.5-2.1-0.4-3.4
		c0.1-1,0.3-2.2,0.7-3.6c0.4-1.4,1-2.7,1.8-3.9c0.8-1.2,1.7-2.1,2.7-2.8c1.4-0.9,2.9-1.4,4.5-1.4c1.7,0,3,0.6,3.9,1.8
		c0.9,1.2,1.2,2.7,1.1,4.7c-0.1,0.9-0.3,1.9-0.6,3.2c-0.3,1.3-0.8,2.5-1.5,3.7c-0.6,1.1-1.4,2.1-2.3,2.8
		C251.3,36.1,249.6,36.7,247.6,36.7z M255,25.6c0.2-1.6,0.1-2.8-0.4-3.7c-0.5-0.9-1.4-1.3-2.6-1.4c-1.1,0-2.1,0.3-3,0.9
		c-0.9,0.6-1.7,1.5-2.4,2.8c-0.7,1.2-1.2,2.8-1.5,4.7l-0.1,0.8c-0.2,1.6-0.1,2.8,0.5,3.7c0.5,0.9,1.4,1.4,2.5,1.4
		c1.5,0,2.9-0.5,4-1.7c1.1-1.1,2-2.8,2.5-4.8C254.7,27.2,254.9,26.3,255,25.6z"/>
	<path fill="#FFFFFF" d="M274.9,18.7l-3.3,12c-0.5,1.8-1.4,3.3-2.8,4.4c-1.4,1.1-3.1,1.6-4.9,1.6c-1.2,0-2.1-0.3-2.9-0.8
		c-0.8-0.5-1.4-1.2-1.7-2.1c-0.3-0.9-0.3-1.9-0.1-3.1l3.3-12h2.2l-3.3,12c-0.3,1.2-0.2,2.2,0.3,2.9c0.5,0.7,1.3,1.1,2.4,1.1
		c1.2,0,2.3-0.3,3.2-1c0.9-0.7,1.6-1.7,1.9-3l3.3-12H274.9z"/>
	<path fill="#FFFFFF" d="M290.1,31.9c0.3-1.3-0.3-2.3-1.7-2.9l-2-0.8l-0.7-0.3c-2.3-1.1-3.2-2.6-2.8-4.5c0.2-1,0.6-1.8,1.3-2.6
		c0.7-0.8,1.5-1.3,2.5-1.7c1-0.4,2.1-0.6,3.2-0.6c1.1,0,2,0.3,2.8,0.7s1.4,1.1,1.7,1.9c0.4,0.8,0.4,1.7,0.3,2.7l-2.3,0
		c0.2-1.1,0-1.9-0.5-2.5c-0.5-0.6-1.3-0.9-2.3-0.9c-1.1,0-2.1,0.2-2.9,0.8s-1.3,1.3-1.5,2.2c-0.3,1.2,0.4,2.1,1.9,2.7l1.7,0.6
		l0.9,0.4c2.2,1.1,3.1,2.6,2.7,4.7c-0.2,1-0.6,1.9-1.3,2.6c-0.7,0.7-1.5,1.3-2.6,1.7s-2.1,0.6-3.3,0.6c-1.1,0-2.1-0.2-3-0.7
		c-0.9-0.5-1.5-1.1-1.9-1.9c-0.4-0.8-0.5-1.7-0.3-2.8l2.3,0c-0.2,1.1,0,1.9,0.6,2.5c0.6,0.6,1.5,0.9,2.6,1c1.2,0,2.2-0.2,3-0.8
		C289.4,33.5,289.9,32.8,290.1,31.9z"/>
	<path fill="#FFFFFF" d="M299.4,31l-0.3,2.1l1-2.1l6.6-12.3h1.9l0.1,12.4l-0.1,2l1-2.4l5.8-12h2.3l-8.8,17.7H307l-0.2-13l0.1-1.2
		l-0.7,1.4l-7,12.8h-2.1l0.5-17.7h2.2L299.4,31z"/>
	<path fill="#FFFFFF" d="M327.6,28.3h-7.4l-1.8,6.3h8.6l-0.5,1.9h-10.9l4.9-17.7h10.8l-0.5,1.9h-8.5l-1.6,5.7h7.4L327.6,28.3z"/>
	<path fill="#FFFFFF" d="M340.3,31.8h-7.2l-2.9,4.6h-2.4l11.5-17.7h2l1.6,17.7h-2.2L340.3,31.8z M334.3,29.9h5.8l-0.6-8.2
		L334.3,29.9z"/>
	<path fill="#FFFFFF" d="M360,20.7h-5.5l-4.4,15.8h-2.3l4.4-15.8h-5.5l0.5-1.9h13.3L360,20.7z"/>
	<path fill="#FFFFFF" d="M101.1,76.3h-5.5l-4.4,15.8h-2.3l4.4-15.8h-5.5l0.5-1.9h13.3L101.1,76.3z"/>
	<path fill="#FFFFFF" d="M112.5,92.1h-2.3l2.3-8.2h-8.6l-2.3,8.2h-2.3l4.9-17.7h2.3l-2.1,7.6h8.6l2.1-7.6h2.3L112.5,92.1z"/>
	<path fill="#FFFFFF" d="M128.6,83.9h-7.4l-1.8,6.3h8.6l-0.5,1.9h-10.9l4.9-17.7h10.8l-0.5,1.9h-8.5l-1.6,5.7h7.4L128.6,83.9z"/>
	<path fill="#FFFFFF" d="M149.8,92.1h-2.3l2.3-8.2h-8.6l-2.3,8.2h-2.3l4.9-17.7h2.3l-2.1,7.6h8.6l2.1-7.6h2.3L149.8,92.1z"/>
	<path fill="#FFFFFF" d="M164.9,87.5h-7.2l-2.9,4.6h-2.4l11.5-17.7h2l1.6,17.7h-2.2L164.9,87.5z M159,85.6h5.8l-0.6-8.2L159,85.6z"
		/>
	<path fill="#FFFFFF" d="M178.3,85h-4.1l-2,7.1h-2.3l4.9-17.7l5.3,0c1.9,0,3.2,0.5,4.1,1.4c0.9,0.9,1.1,2.2,0.8,3.8
		c-0.2,1.1-0.7,2.1-1.5,2.9c-0.8,0.8-1.8,1.5-3.1,1.9l2,7.5l0,0.2H180L178.3,85z M174.8,83.1l3.3,0c1.2,0,2.2-0.3,3-0.9
		c0.9-0.6,1.4-1.5,1.7-2.5c0.2-1,0.1-1.8-0.4-2.4c-0.5-0.6-1.2-0.9-2.3-0.9l-3.5,0L174.8,83.1z"/>
	<path fill="#FFFFFF" d="M184.9,92.1l4.9-17.7l4.6,0c1.4,0,2.6,0.4,3.6,1.1c1,0.7,1.6,1.7,1.9,3c0.3,1.3,0.3,2.7,0,4.3l-0.2,0.9
		c-0.6,2.6-1.8,4.6-3.6,6.2c-1.8,1.5-3.9,2.3-6.4,2.3H184.9z M191.6,76.3l-3.9,13.9l2.2,0c1.7,0,3.2-0.5,4.5-1.6
		c1.3-1.1,2.2-2.5,2.8-4.4c0.4-1.5,0.7-2.8,0.7-3.8c0-1.3-0.3-2.2-0.9-2.9c-0.6-0.7-1.6-1.1-2.7-1.1L191.6,76.3z"/>
	<path fill="#FFFFFF" d="M212.9,83.9h-7.4l-1.8,6.3h8.6l-0.5,1.9h-10.9l4.9-17.7h10.8l-0.5,1.9h-8.5L206,82h7.4L212.9,83.9z"/>
	<path fill="#FFFFFF" d="M223,85H219l-2,7.1h-2.3l4.9-17.7l5.3,0c1.9,0,3.2,0.5,4.1,1.4c0.9,0.9,1.1,2.2,0.8,3.8
		c-0.2,1.1-0.7,2.1-1.5,2.9c-0.8,0.8-1.8,1.5-3.1,1.9l2,7.5l0,0.2h-2.4L223,85z M219.5,83.1l3.3,0c1.2,0,2.2-0.3,3-0.9
		c0.9-0.6,1.4-1.5,1.7-2.5c0.2-1,0.1-1.8-0.4-2.4c-0.5-0.6-1.2-0.9-2.3-0.9l-3.5,0L219.5,83.1z"/>
	<path fill="#FFFFFF" d="M251.5,76.3H246l-4.4,15.8h-2.3l4.4-15.8h-5.5l0.5-1.9h13.3L251.5,76.3z"/>
	<path fill="#FFFFFF" d="M263,92.1h-2.3l2.3-8.2h-8.6l-2.3,8.2h-2.3l4.9-17.7h2.3l-2.1,7.6h8.6l2.1-7.6h2.3L263,92.1z"/>
	<path fill="#FFFFFF" d="M279.1,83.9h-7.4l-1.8,6.3h8.6l-0.5,1.9h-10.9l4.9-17.7h10.8l-0.5,1.9h-8.5l-1.6,5.7h7.4L279.1,83.9z"/>
	<path fill="#FFFFFF" d="M288.6,83.3l6.9-8.9h2.7l-9.1,11.2l-1.8,6.5H285l1.9-6.7l-2.8-11h2.5L288.6,83.3z"/>
	<path fill="#FFFFFF" d="M306.9,86.7l-0.3,2.1l1-2.1l6.6-12.3h1.9l0.1,12.4l-0.1,2l1-2.4l5.8-12h2.3l-8.8,17.7h-2.1l-0.2-13l0.1-1.2
		l-0.7,1.4l-7,12.8h-2.1l0.5-17.7h2.2L306.9,86.7z"/>
	<path fill="#FFFFFF" d="M329.6,92.4c-1.1,0-2.1-0.3-2.8-0.8c-0.8-0.5-1.3-1.3-1.7-2.3c-0.4-1-0.5-2.1-0.4-3.4
		c0.1-1,0.3-2.2,0.7-3.6c0.4-1.4,1-2.7,1.8-3.9c0.8-1.2,1.7-2.1,2.7-2.8c1.4-0.9,2.9-1.4,4.5-1.4c1.7,0,3,0.6,3.9,1.8
		c0.9,1.2,1.2,2.7,1.1,4.7c-0.1,0.8-0.3,1.9-0.6,3.2c-0.3,1.3-0.8,2.5-1.5,3.7c-0.6,1.1-1.4,2.1-2.3,2.8
		C333.3,91.8,331.5,92.4,329.6,92.4z M337,81.3c0.2-1.6,0.1-2.8-0.4-3.7c-0.5-0.9-1.4-1.3-2.6-1.4c-1.1,0-2.1,0.3-3,0.9
		s-1.7,1.5-2.4,2.8c-0.7,1.2-1.2,2.8-1.5,4.7l-0.1,0.8c-0.2,1.6-0.1,2.8,0.5,3.7c0.5,0.9,1.4,1.4,2.5,1.4c1.5,0,2.9-0.5,4-1.7
		c1.1-1.1,2-2.8,2.5-4.8C336.7,82.9,336.9,82,337,81.3z"/>
	<path fill="#FFFFFF" d="M348.2,85h-4.1l-2,7.1h-2.3l4.9-17.7l5.3,0c1.9,0,3.2,0.5,4.1,1.4c0.9,0.9,1.1,2.2,0.8,3.8
		c-0.2,1.1-0.7,2.1-1.5,2.9c-0.8,0.8-1.8,1.5-3.1,1.9l2,7.5l0,0.2h-2.4L348.2,85z M344.6,83.1l3.3,0c1.2,0,2.2-0.3,3-0.9
		c0.9-0.6,1.4-1.5,1.7-2.5c0.2-1,0.1-1.8-0.4-2.4c-0.5-0.6-1.2-0.9-2.3-0.9l-3.5,0L344.6,83.1z"/>
	<path fill="#FFFFFF" d="M361.6,83.9l-2.8,2.3l-1.6,5.9h-2.3l4.9-17.7h2.3l-2.4,8.6l9.9-8.6h2.9l-9.1,7.9l4.5,9.8h-2.5L361.6,83.9z"
		/>
	<path fill="#FFFFFF" d="M371.6,89.6c0.4,0,0.7,0.1,0.9,0.4c0.2,0.3,0.3,0.6,0.3,1c0,0.4-0.2,0.7-0.5,1c-0.3,0.2-0.6,0.4-1,0.4
		c-0.4,0-0.7-0.1-0.9-0.3s-0.3-0.6-0.3-1c0-0.4,0.2-0.7,0.5-1S371.2,89.6,371.6,89.6z"/>
</g>
</svg>
