<?xml version="1.0" encoding="utf-8"?>
<!-- Generator: Adobe Illustrator 18.1.1, SVG Export Plug-In . SVG Version: 6.00 Build 0)  -->
<svg version="1.1" id="Layer_1" xmlns="http://www.w3.org/2000/svg" xmlns:xlink="http://www.w3.org/1999/xlink" x="0px" y="0px"
	 viewBox="0 0 421.2 166.4" enable-background="new 0 0 421.2 166.4" xml:space="preserve">
<polygon opacity="0.85" fill="#FFFFFF" stroke="#269CCE" stroke-width="0.3044" stroke-miterlimit="10" points="348.7,164.3 
	1.4,164.3 60.2,-0.1 407.4,-0.1 "/>
<g>
	<circle fill="#269CCE" cx="201.9" cy="95.4" r="22.3"/>
	<polygon fill="#FFFFFF" points="196.7,106.6 196.7,84.1 212.4,95.4 	"/>
</g>
<g>
	<path fill="#269CCE" d="M115,58.7l0.2,1.4l0.3-1.3l2.1-7.4h1.2l2.1,7.4l0.3,1.3l0.2-1.4l1.7-7.3h1.4l-2.6,10.7h-1.3l-2.2-7.8
		l-0.2-0.8l-0.2,0.8l-2.3,7.8h-1.3l-2.6-10.7h1.4L115,58.7z"/>
	<path fill="#269CCE" d="M136.1,59.3h-4.5l-1,2.8h-1.5l4.1-10.7h1.2l4.1,10.7h-1.4L136.1,59.3z M132,58.1h3.6l-1.8-5L132,58.1z"/>
	<path fill="#269CCE" d="M150.9,52.5h-3.4v9.5h-1.4v-9.5h-3.4v-1.1h8.2V52.5z"/>
	<path fill="#269CCE" d="M164.6,58.7c-0.1,1.1-0.5,2-1.2,2.6c-0.7,0.6-1.6,0.9-2.8,0.9c-1.3,0-2.3-0.5-3-1.4
		c-0.8-0.9-1.1-2.1-1.1-3.6v-1c0-1,0.2-1.9,0.5-2.6c0.4-0.8,0.9-1.3,1.5-1.7c0.6-0.4,1.4-0.6,2.3-0.6c1.1,0,2,0.3,2.7,0.9
		c0.7,0.6,1.1,1.5,1.2,2.6h-1.4c-0.1-0.9-0.4-1.5-0.8-1.9c-0.4-0.4-1-0.6-1.7-0.6c-0.9,0-1.6,0.3-2.1,1c-0.5,0.7-0.8,1.6-0.8,2.8v1
		c0,1.2,0.2,2.1,0.7,2.8c0.5,0.7,1.2,1,2,1c0.8,0,1.4-0.2,1.8-0.5c0.4-0.4,0.7-1,0.8-1.8H164.6z"/>
	<path fill="#269CCE" d="M179.2,62.1h-1.4v-4.9h-5.4v4.9H171V51.4h1.4V56h5.4v-4.6h1.4V62.1z"/>
	<path fill="#269CCE" d="M201.5,52.5h-3.4v9.5h-1.4v-9.5h-3.4v-1.1h8.2V52.5z"/>
	<path fill="#269CCE" d="M215.8,62.1h-1.4v-4.9H209v4.9h-1.4V51.4h1.4V56h5.4v-4.6h1.4V62.1z"/>
	<path fill="#269CCE" d="M228.8,57.1h-4.6v3.8h5.4v1.1h-6.8V51.4h6.7v1.1h-5.3V56h4.6V57.1z"/>
	<path fill="#269CCE" d="M244,62.1V51.4h3c0.9,0,1.7,0.2,2.5,0.6s1.3,1,1.7,1.8c0.4,0.8,0.6,1.6,0.6,2.6V57c0,1-0.2,1.9-0.6,2.6
		c-0.4,0.8-0.9,1.3-1.7,1.7c-0.7,0.4-1.6,0.6-2.5,0.6H244z M245.4,52.5v8.4h1.5c1.1,0,1.9-0.3,2.5-1c0.6-0.7,0.9-1.6,0.9-2.9v-0.6
		c0-1.2-0.3-2.2-0.9-2.8c-0.6-0.7-1.4-1-2.4-1H245.4z"/>
	<path fill="#269CCE" d="M264.4,57.1h-4.6v3.8h5.4v1.1h-6.8V51.4h6.7v1.1h-5.3V56h4.6V57.1z"/>
	<path fill="#269CCE" d="M273.2,51.4l3.5,8.7l3.5-8.7h1.8v10.7h-1.4v-4.2l0.1-4.5l-3.5,8.6h-1.1l-3.5-8.6l0.1,4.5v4.2h-1.4V51.4
		H273.2z"/>
	<path fill="#269CCE" d="M297.2,57.1c0,1-0.2,2-0.5,2.7s-0.8,1.4-1.5,1.8s-1.4,0.6-2.3,0.6c-0.8,0-1.6-0.2-2.2-0.6
		c-0.6-0.4-1.2-1-1.5-1.8c-0.4-0.8-0.5-1.6-0.6-2.7v-0.8c0-1,0.2-1.9,0.5-2.7s0.9-1.4,1.5-1.8c0.7-0.4,1.4-0.6,2.2-0.6
		c0.9,0,1.6,0.2,2.3,0.6c0.7,0.4,1.2,1,1.5,1.8c0.4,0.8,0.5,1.7,0.5,2.7V57.1z M295.8,56.4c0-1.3-0.3-2.2-0.8-2.9
		c-0.5-0.7-1.2-1-2.1-1c-0.9,0-1.6,0.3-2.1,1c-0.5,0.7-0.8,1.6-0.8,2.8v0.8c0,1.2,0.3,2.2,0.8,2.9c0.5,0.7,1.2,1.1,2.1,1.1
		c0.9,0,1.6-0.3,2.1-1c0.5-0.7,0.8-1.6,0.8-2.8V56.4z"/>
</g>
</svg>
