<?xml version="1.0" encoding="utf-8"?>
<!-- Generator: Adobe Illustrator 18.1.1, SVG Export Plug-In . SVG Version: 6.00 Build 0)  -->
<svg version="1.1" id="Layer_1" xmlns="http://www.w3.org/2000/svg" xmlns:xlink="http://www.w3.org/1999/xlink" x="0px" y="0px"
	 viewBox="0 0 11.7 11.5" enable-background="new 0 0 11.7 11.5" xml:space="preserve">
<g>
	<g>
		<path fill="#FFFFFF" d="M5.9,1.7c1,0,2.1,0.4,2.8,1.2c1.6,1.6,1.6,4.1,0,5.7C7.9,9.4,6.9,9.7,5.9,9.7S3.8,9.4,3.1,8.6
			C1.5,7,1.5,4.5,3.1,2.9C3.8,2.1,4.9,1.7,5.9,1.7 M5.9,0.1c-1.5,0-2.9,0.6-4,1.6c-1.1,1.1-1.6,2.5-1.6,4s0.6,2.9,1.6,4
			c1.1,1.1,2.5,1.6,4,1.6c1.5,0,2.9-0.6,4-1.6c1.1-1.1,1.6-2.5,1.6-4s-0.6-2.9-1.6-4C8.8,0.7,7.4,0.1,5.9,0.1L5.9,0.1z"/>
	</g>
	<line fill="none" stroke="#FFFFFF" stroke-width="1.6176" stroke-miterlimit="10" x1="8.7" y1="2.9" x2="3.1" y2="8.6"/>
</g>
</svg>
