<?xml version="1.0" encoding="utf-8"?>
<!-- Generator: Adobe Illustrator 18.1.1, SVG Export Plug-In . SVG Version: 6.00 Build 0)  -->
<svg version="1.1" id="Layer_1" xmlns="http://www.w3.org/2000/svg" xmlns:xlink="http://www.w3.org/1999/xlink" x="0px" y="0px"
	 viewBox="0 0 259.5 113.3" enable-background="new 0 0 259.5 113.3" xml:space="preserve">
<path fill="#E3F4FB" stroke="#5DC1E5" stroke-width="1.3945" stroke-miterlimit="10" d="M93.1,104.1H22.2c-6.8,0-12.3-5.6-12.3-12.3
	V20.9c0-6.8,5.6-12.3,12.3-12.3h70.9c6.8,0,12.3,5.6,12.3,12.3v70.9C105.4,98.6,99.9,104.1,93.1,104.1z"/>
<g>
	<path fill="#5DC1E5" d="M23.7,50.6h3l1.5,5.2c0.4,1.3,0.7,2.8,0.7,2.8h0c0,0,0.3-1.5,0.6-2.8l1.5-5.2h3v10.4h-2v-6
		c0-0.8,0.1-2.2,0.1-2.2h0c0,0-0.2,1.2-0.5,2l-1.8,6.2h-2L26,54.9c-0.2-0.8-0.5-2-0.5-2h0c0,0,0.1,1.3,0.1,2.2v6h-1.9V50.6z"/>
	<path fill="#5DC1E5" d="M36.3,50.6h2.1v10.4h-2.1V50.6z"/>
	<path fill="#5DC1E5" d="M40.3,55.9c0-3.1,1.9-5.5,5-5.5c2.6,0,4.1,1.5,4.3,3.5h-2.1c-0.2-1.1-1-1.7-2.2-1.7c-1.9,0-2.8,1.6-2.8,3.7
		c0,2.1,1.1,3.7,2.9,3.7c1.2,0,2.1-0.7,2.2-1.8h2.1c-0.1,0.9-0.5,1.8-1.2,2.5c-0.7,0.7-1.7,1.1-3.2,1.1C42.4,61.3,40.3,59,40.3,55.9
		z"/>
	<path fill="#5DC1E5" d="M51.5,50.6h4.8c2,0,3.4,1.2,3.4,2.9c0,1.2-0.6,2.2-1.9,2.5v0c1,0.3,1.5,0.8,1.6,2.1
		c0.1,1.5,0.1,2.6,0.5,2.8v0.1h-2c-0.3-0.1-0.3-1.3-0.4-2.4c-0.1-1.1-0.7-1.8-2-1.8h-1.7v4.2h-2.1V50.6z M53.6,55.3h2.2
		c1.2,0,1.7-0.6,1.7-1.4c0-0.8-0.5-1.5-1.7-1.5h-2.3V55.3z"/>
	<path fill="#5DC1E5" d="M61.2,55.9c0-3.1,2-5.4,5-5.4c3.1,0,5,2.3,5,5.4c0,3.1-1.9,5.4-5,5.4C63.2,61.3,61.2,59,61.2,55.9z
		 M69.1,55.9c0-2.1-0.9-3.7-2.8-3.7c-1.9,0-2.9,1.6-2.9,3.7c0,2.1,1,3.7,2.9,3.7C68.2,59.6,69.1,58,69.1,55.9z"/>
	<path fill="#5DC1E5" d="M73.2,50.6h4.7c1.1,0,2,0.3,2.5,0.8c0.6,0.5,0.8,1.1,0.8,2c0,1.1-0.7,1.8-1.6,2.1v0
		c1.2,0.3,1.9,1.3,1.9,2.6c0,1-0.3,1.6-0.9,2.2c-0.6,0.5-1.5,0.8-2.6,0.8h-4.8V50.6z M77.6,54.8c0.9,0,1.5-0.4,1.5-1.3
		c0-0.8-0.6-1.2-1.5-1.2h-2.3v2.5H77.6z M75.3,59.3h2.4c1,0,1.6-0.6,1.6-1.4c0-1-0.7-1.5-1.7-1.5h-2.4V59.3z"/>
	<path fill="#5DC1E5" d="M83.5,50.6h7.7v1.8h-5.6v2.3h4.9v1.7h-4.9v2.8h5.6v1.8h-7.7V50.6z"/>
</g>
</svg>
