<?xml version="1.0" encoding="utf-8"?>
<!-- Generator: Adobe Illustrator 18.1.1, SVG Export Plug-In . SVG Version: 6.00 Build 0)  -->
<svg version="1.1" id="Layer_1" xmlns="http://www.w3.org/2000/svg" xmlns:xlink="http://www.w3.org/1999/xlink" x="0px" y="0px"
	 viewBox="0 0 396 159.8" enable-background="new 0 0 396 159.8" xml:space="preserve">
<g>
	<polygon fill="#808080" points="1.6,8.3 0.9,9 1.6,9.7 	"/>
	<polygon fill="#808080" points="9.9,0 9.9,0 9.9,0 	"/>
	<polygon fill="#808080" points="39,0 39,0 39,0 	"/>
	<polygon fill="#808080" points="1.6,37.5 0.9,38.1 1.6,38.8 	"/>
	<polygon fill="#808080" points="68.2,0 68.2,0 68.2,0 	"/>
	<polygon fill="#808080" points="1.6,66.6 0.9,67.3 1.6,68 	"/>
	<polygon fill="#808080" points="1.6,95.7 0.9,96.4 1.6,97.1 	"/>
	<polygon fill="#808080" points="1.6,124.9 0.9,125.6 1.6,126.3 	"/>
	<polygon fill="#808080" points="5.4,159.2 6.4,160.3 7.5,159.2 	"/>
	<polygon fill="#808080" points="155.6,0 155.6,0 155.6,0 	"/>
	<polygon fill="#808080" points="1.6,154 0.9,154.7 1.6,155.4 	"/>
	<polygon fill="#808080" points="184.7,0 184.7,0 184.7,0 	"/>
	<polygon fill="#808080" points="34.5,159.2 35.6,160.3 36.6,159.2 	"/>
	<polygon fill="#808080" points="63.7,159.2 64.7,160.3 65.8,159.2 	"/>
	<polygon fill="#808080" points="92.8,159.2 93.9,160.3 94.9,159.2 	"/>
	<polygon fill="#808080" points="121.9,159.2 123,160.3 124.1,159.2 	"/>
	<polygon fill="#808080" points="301.3,0 301.3,0 301.3,0 	"/>
	<polygon fill="#808080" points="151.1,159.2 152.1,160.3 153.2,159.2 	"/>
	<polygon fill="#808080" points="180.2,159.2 181.3,160.3 182.3,159.2 	"/>
	<polygon fill="#808080" points="330.4,0 330.4,0 330.4,0 	"/>
	<polygon fill="#808080" points="359.6,0 359.6,0 359.6,0 	"/>
	<polygon fill="#808080" points="209.4,159.2 210.4,160.3 211.5,159.2 	"/>
	<polygon fill="#808080" points="238.5,159.2 239.6,160.3 240.6,159.2 	"/>
	<polygon fill="#808080" points="393.3,4.6 393.3,6.6 394.3,5.6 	"/>
	<polygon fill="#808080" points="267.6,159.2 268.7,160.3 269.8,159.2 	"/>
	<polygon fill="#808080" points="393.3,33.7 393.3,35.7 394.3,34.7 	"/>
	<polygon fill="#808080" points="393.3,62.8 393.3,64.8 394.3,63.8 	"/>
	<polygon fill="#808080" points="296.8,159.2 297.8,160.3 298.9,159.2 	"/>
	<polygon fill="#808080" points="393.3,92 393.3,94 394.3,93 	"/>
	<polygon fill="#808080" points="325.9,159.2 327,160.3 328,159.2 	"/>
	<polygon fill="#808080" points="393.3,121.1 393.3,123.1 394.3,122.1 	"/>
	<polygon fill="#808080" points="355.1,159.2 356.1,160.3 357.2,159.2 	"/>
	<polygon fill="#808080" points="393.3,150.3 393.3,152.3 394.3,151.3 	"/>
	<polygon fill="#808080" points="384.2,159.2 385.3,160.3 386.3,159.2 	"/>
	<polygon fill="#CCCCCC" points="370.7,0 370.7,0 370.7,0 	"/>
	<polygon fill="#CCCCCC" points="393.3,22.6 393.3,24.6 394.3,23.6 	"/>
	<polygon fill="#CCCCCC" points="341.5,0 341.5,0 341.5,0 	"/>
	<polygon fill="#CCCCCC" points="393.3,51.7 393.3,53.7 394.3,52.7 	"/>
	<polygon fill="#CCCCCC" points="393.3,80.9 393.3,82.9 394.3,81.9 	"/>
	<polygon fill="#CCCCCC" points="312.4,0 312.4,0 312.4,0 	"/>
	<polygon fill="#CCCCCC" points="393.3,110 393.3,112 394.3,111 	"/>
	<polygon fill="#CCCCCC" points="393.3,139.1 393.3,141.1 394.3,140.1 	"/>
	<polygon fill="#CCCCCC" points="373.1,159.2 374.1,160.3 375.2,159.2 	"/>
	<polygon fill="#CCCCCC" points="343.9,159.2 345,160.3 346,159.2 	"/>
	<polygon fill="#CCCCCC" points="195.9,0 195.9,0 195.9,0 	"/>
	<polygon fill="#CCCCCC" points="314.8,159.2 315.9,160.3 316.9,159.2 	"/>
	<polygon fill="#CCCCCC" points="166.7,0 166.7,0 166.7,0 	"/>
	<polygon fill="#CCCCCC" points="285.7,159.2 286.7,160.3 287.8,159.2 	"/>
	<polygon fill="#CCCCCC" points="256.5,159.2 257.6,160.3 258.6,159.2 	"/>
	<polygon fill="#CCCCCC" points="79.3,0 79.3,0 79.3,0 	"/>
	<polygon fill="#CCCCCC" points="227.4,159.2 228.4,160.3 229.5,159.2 	"/>
	<polygon fill="#CCCCCC" points="50.2,0 50.2,0 50.2,0 	"/>
	<polygon fill="#CCCCCC" points="198.2,159.2 199.3,160.3 200.4,159.2 	"/>
	<polygon fill="#CCCCCC" points="169.1,159.2 170.2,160.3 171.2,159.2 	"/>
	<polygon fill="#CCCCCC" points="21,0 21,0 21,0 	"/>
	<polygon fill="#CCCCCC" points="1.6,19.4 0.9,20.1 1.6,20.8 	"/>
	<polygon fill="#CCCCCC" points="140,159.2 141,160.3 142.1,159.2 	"/>
	<polygon fill="#CCCCCC" points="110.8,159.2 111.9,160.3 112.9,159.2 	"/>
	<polygon fill="#CCCCCC" points="1.6,48.6 0.9,49.3 1.6,50 	"/>
	<polygon fill="#CCCCCC" points="81.7,159.2 82.7,160.3 83.8,159.2 	"/>
	<polygon fill="#CCCCCC" points="1.6,77.7 0.9,78.4 1.6,79.1 	"/>
	<polygon fill="#CCCCCC" points="1.6,106.9 0.9,107.5 1.6,108.2 	"/>
	<polygon fill="#CCCCCC" points="52.5,159.2 53.6,160.3 54.7,159.2 	"/>
	<polygon fill="#CCCCCC" points="23.4,159.2 24.5,160.3 25.5,159.2 	"/>
	<polygon fill="#CCCCCC" points="1.6,136 0.9,136.7 1.6,137.4 	"/>
	
		<rect x="285.9" y="22.8" transform="matrix(0.7071 0.7071 -0.7071 0.7071 106.2095 -198.1343)" fill="none" width="12.7" height="12.7"/>
	
		<rect x="285.9" y="81" transform="matrix(0.7071 0.7071 -0.7071 0.7071 147.4186 -181.0652)" fill="none" width="12.7" height="12.7"/>
	
		<rect x="227.6" y="139.3" transform="matrix(0.7071 0.7071 -0.7071 0.7071 171.558 -122.7876)" fill="none" width="12.7" height="12.7"/>
	
		<rect x="242.2" y="124.8" transform="matrix(0.7071 0.7071 -0.7071 0.7071 165.5231 -137.357)" fill="none" width="12.7" height="12.7"/>
	
		<rect x="300.5" y="66.5" transform="matrix(0.7071 0.7071 -0.7071 0.7071 141.3837 -195.6348)" fill="none" width="12.7" height="12.7"/>
	
		<rect x="271.3" y="95.6" transform="matrix(0.7071 0.7071 -0.7071 0.7071 153.4535 -166.4957)" fill="none" width="12.7" height="12.7"/>
	
		<rect x="271.3" y="37.3" transform="matrix(0.7071 0.7071 -0.7071 0.7071 112.2444 -183.5649)" fill="none" width="12.7" height="12.7"/>
	<polygon fill="none" points="248.6,151.3 240.6,159.2 256.5,159.2 	"/>
	
		<rect x="256.8" y="110.2" transform="matrix(0.7071 0.7071 -0.7071 0.7071 159.4884 -151.9263)" fill="none" width="12.7" height="12.7"/>
	
		<rect x="329.6" y="124.8" transform="matrix(0.7071 0.7071 -0.7071 0.7071 191.1267 -199.1697)" fill="none" width="12.7" height="12.7"/>
	
		<rect x="315" y="51.9" transform="matrix(0.7071 0.7071 -0.7071 0.7071 135.3488 -210.2042)" fill="none" width="12.7" height="12.7"/>
	
		<rect x="358.8" y="95.6" transform="matrix(0.7071 0.7071 -0.7071 0.7071 179.057 -228.3087)" fill="none" width="12.7" height="12.7"/>
	
		<rect x="344.2" y="110.2" transform="matrix(0.7071 0.7071 -0.7071 0.7071 185.0918 -213.7393)" fill="none" width="12.7" height="12.7"/>
	
		<rect x="373.3" y="81" transform="matrix(0.7071 0.7071 -0.7071 0.7071 173.0199 -242.8768)" fill="none" width="12.7" height="12.7"/>
	
		<rect x="242.2" y="66.5" transform="matrix(0.7071 0.7071 -0.7071 0.7071 124.3142 -154.4258)" fill="none" width="12.7" height="12.7"/>
	
		<rect x="300.5" y="8.2" transform="matrix(0.7071 0.7071 -0.7071 0.7071 100.1747 -212.7037)" fill="none" width="12.7" height="12.7"/>
	
		<rect x="198.5" y="110.2" transform="matrix(0.7071 0.7071 -0.7071 0.7071 142.4187 -110.7177)" fill="none" width="12.7" height="12.7"/>
	
		<rect x="256.8" y="51.9" transform="matrix(0.7071 0.7071 -0.7071 0.7071 118.2793 -168.9953)" fill="none" width="12.7" height="12.7"/>
	
		<rect x="227.6" y="81" transform="matrix(0.7071 0.7071 -0.7071 0.7071 130.349 -139.8564)" fill="none" width="12.7" height="12.7"/>
	
		<rect x="213.1" y="95.6" transform="matrix(0.7071 0.7071 -0.7071 0.7071 136.3838 -125.2871)" fill="none" width="12.7" height="12.7"/>
	<polygon fill="none" points="393.3,152.3 386.3,159.2 393.3,159.2 	"/>
	<polygon fill="none" points="277.7,151.3 269.8,159.2 285.7,159.2 	"/>
	<polygon fill="none" points="219.4,151.3 211.5,159.2 227.4,159.2 	"/>
	<polygon fill="none" points="393.3,6.6 385.3,14.6 393.3,22.6 	"/>
	
		<rect x="9.1" y="95.6" transform="matrix(0.7071 0.7071 -0.7071 0.7071 76.6421 18.9434)" fill="none" width="12.7" height="12.7"/>
	
		<rect x="285.9" y="139.3" transform="matrix(0.7071 0.7071 -0.7071 0.7071 188.6268 -163.9958)" fill="none" width="12.7" height="12.7"/>
	<rect x="23.7" y="81" transform="matrix(0.7071 0.7071 -0.7071 0.7071 70.6072 4.3738)" fill="none" width="12.7" height="12.7"/>
	<rect x="9.1" y="37.3" transform="matrix(0.7071 0.7071 -0.7071 0.7071 35.433 1.8741)" fill="none" width="12.7" height="12.7"/>
	
		<rect x="300.5" y="95.6" transform="matrix(0.7071 0.7071 -0.7071 0.7071 161.9878 -187.1)" fill="none" width="12.7" height="12.7"/>
	
		<rect x="38.2" y="8.2" transform="matrix(0.7071 0.7071 -0.7071 0.7071 23.3633 -27.2647)" fill="none" width="12.7" height="12.7"/>
	
		<rect x="271.3" y="124.8" transform="matrix(0.7071 0.7071 -0.7071 0.7071 174.0575 -157.961)" fill="none" width="12.7" height="12.7"/>
	
		<rect x="358.8" y="37.3" transform="matrix(0.7071 0.7071 -0.7071 0.7071 137.8482 -245.378)" fill="none" width="12.7" height="12.7"/>
	
		<rect x="315" y="81" transform="matrix(0.7071 0.7071 -0.7071 0.7071 155.9528 -201.6695)" fill="none" width="12.7" height="12.7"/>
	<polygon fill="none" points="336,151.3 328,159.2 343.9,159.2 	"/>
	<polygon fill="none" points="126.4,0 126.4,0 108.4,0 108.4,0 117.4,9 	"/>
	
		<rect x="96.5" y="8.2" transform="matrix(0.7071 0.7071 -0.7071 0.7071 40.4328 -68.4737)" fill="none" width="12.7" height="12.7"/>
	
		<rect x="38.2" y="66.5" transform="matrix(0.7071 0.7071 -0.7071 0.7071 64.5723 -10.1958)" fill="none" width="12.7" height="12.7"/>
	
		<rect x="373.3" y="22.8" transform="matrix(0.7071 0.7071 -0.7071 0.7071 131.8133 -259.9475)" fill="none" width="12.7" height="12.7"/>
	
		<rect x="285.9" y="110.2" transform="matrix(0.7071 0.7071 -0.7071 0.7071 168.0227 -172.5304)" fill="none" width="12.7" height="12.7"/>
	
		<rect x="23.7" y="22.8" transform="matrix(0.7071 0.7071 -0.7071 0.7071 29.3982 -12.6953)" fill="none" width="12.7" height="12.7"/>
	
		<rect x="329.6" y="37.3" transform="matrix(0.7071 0.7071 -0.7071 0.7071 129.314 -224.7737)" fill="none" width="12.7" height="12.7"/>
	
		<rect x="67.4" y="37.3" transform="matrix(0.7071 0.7071 -0.7071 0.7071 52.5026 -39.3346)" fill="none" width="12.7" height="12.7"/>
	
		<rect x="52.8" y="51.9" transform="matrix(0.7071 0.7071 -0.7071 0.7071 58.5375 -24.7652)" fill="none" width="12.7" height="12.7"/>
	
		<rect x="81.9" y="22.8" transform="matrix(0.7071 0.7071 -0.7071 0.7071 46.4677 -53.9042)" fill="none" width="12.7" height="12.7"/>
	
		<rect x="315" y="139.3" transform="matrix(0.7071 0.7071 -0.7071 0.7071 197.1616 -184.6002)" fill="none" width="12.7" height="12.7"/>
	<polygon fill="none" points="161.1,151.3 153.2,159.2 169.1,159.2 	"/>
	
		<rect x="111.1" y="110.2" transform="matrix(0.7071 0.7071 -0.7071 0.7071 116.8154 -48.9047)" fill="none" width="12.7" height="12.7"/>
	
		<rect x="300.5" y="124.8" transform="matrix(0.7071 0.7071 -0.7071 0.7071 182.592 -178.5652)" fill="none" width="12.7" height="12.7"/>
	
		<rect x="183.9" y="124.8" transform="matrix(0.7071 0.7071 -0.7071 0.7071 148.4536 -96.1481)" fill="none" width="12.7" height="12.7"/>
	
		<rect x="125.6" y="95.6" transform="matrix(0.7071 0.7071 -0.7071 0.7071 110.7805 -63.4741)" fill="none" width="12.7" height="12.7"/>
	
		<rect x="96.5" y="124.8" transform="matrix(0.7071 0.7071 -0.7071 0.7071 122.8502 -34.3352)" fill="none" width="12.7" height="12.7"/>
	<polygon fill="none" points="306.8,151.3 298.9,159.2 314.8,159.2 	"/>
	
		<rect x="23.7" y="110.2" transform="matrix(0.7071 0.7071 -0.7071 0.7071 91.2113 12.9086)" fill="none" width="12.7" height="12.7"/>
	
		<rect x="81.9" y="139.3" transform="matrix(0.7071 0.7071 -0.7071 0.7071 128.8851 -19.7657)" fill="none" width="12.7" height="12.7"/>
	<polygon fill="none" points="73.7,151.3 65.8,159.2 81.7,159.2 	"/>
	
		<rect x="9.1" y="124.8" transform="matrix(0.7071 0.7071 -0.7071 0.7071 97.2462 27.478)" fill="none" width="12.7" height="12.7"/>
	
		<rect x="169.3" y="139.3" transform="matrix(0.7071 0.7071 -0.7071 0.7071 154.4885 -81.5785)" fill="none" width="12.7" height="12.7"/>
	
		<rect x="140.2" y="81" transform="matrix(0.7071 0.7071 -0.7071 0.7071 104.7456 -78.0437)" fill="none" width="12.7" height="12.7"/>
	
		<rect x="329.6" y="66.5" transform="matrix(0.7071 0.7071 -0.7071 0.7071 149.918 -216.239)" fill="none" width="12.7" height="12.7"/>
	
		<rect x="198.5" y="22.8" transform="matrix(0.7071 0.7071 -0.7071 0.7071 80.6062 -136.3213)" fill="none" width="12.7" height="12.7"/>
	<polygon fill="none" points="243,0 243,0 225,0 225,0 234,9 	"/>
	
		<rect x="213.1" y="8.2" transform="matrix(0.7071 0.7071 -0.7071 0.7071 74.5713 -150.8909)" fill="none" width="12.7" height="12.7"/>
	
		<rect x="315" y="110.2" transform="matrix(0.7071 0.7071 -0.7071 0.7071 176.5571 -193.1348)" fill="none" width="12.7" height="12.7"/>
	
		<rect x="329.6" y="95.6" transform="matrix(0.7071 0.7071 -0.7071 0.7071 170.5222 -207.7044)" fill="none" width="12.7" height="12.7"/>
	
		<rect x="154.8" y="66.5" transform="matrix(0.7071 0.7071 -0.7071 0.7071 98.7107 -92.6132)" fill="none" width="12.7" height="12.7"/>
	
		<rect x="169.3" y="51.9" transform="matrix(0.7071 0.7071 -0.7071 0.7071 92.6758 -107.1826)" fill="none" width="12.7" height="12.7"/>
	
		<rect x="183.9" y="37.3" transform="matrix(0.7071 0.7071 -0.7071 0.7071 86.641 -121.7519)" fill="none" width="12.7" height="12.7"/>
	
		<rect x="256.8" y="139.3" transform="matrix(0.7071 0.7071 -0.7071 0.7071 180.0923 -143.3917)" fill="none" width="12.7" height="12.7"/>
	<polygon fill="none" points="1.6,20.8 1.6,37.5 9.9,29.1 	"/>
	<polygon fill="none" points="21,0 30,9 39,0 	"/>
	<polygon fill="none" points="1.6,0 1.6,8.3 9.9,0 	"/>
	
		<rect x="329.6" y="8.2" transform="matrix(0.7071 0.7071 -0.7071 0.7071 108.7094 -233.3083)" fill="none" width="12.7" height="12.7"/>
	
		<rect x="154.8" y="95.6" transform="matrix(0.7071 0.7071 -0.7071 0.7071 119.3152 -84.0786)" fill="none" width="12.7" height="12.7"/>
	
		<rect x="344.2" y="22.8" transform="matrix(0.7071 0.7071 -0.7071 0.7071 123.2791 -239.3432)" fill="none" width="12.7" height="12.7"/>
	
		<rect x="300.5" y="37.3" transform="matrix(0.7071 0.7071 -0.7071 0.7071 120.7792 -204.1693)" fill="none" width="12.7" height="12.7"/>
	<polygon fill="none" points="1.6,50 1.6,66.6 9.9,58.3 	"/>
	
		<rect x="198.5" y="51.9" transform="matrix(0.7071 0.7071 -0.7071 0.7071 101.2107 -127.7869)" fill="none" width="12.7" height="12.7"/>
	
		<rect x="125.6" y="8.2" transform="matrix(0.7071 0.7071 -0.7071 0.7071 48.9671 -89.0779)" fill="none" width="12.7" height="12.7"/>
	
		<rect x="213.1" y="37.3" transform="matrix(0.7071 0.7071 -0.7071 0.7071 95.1758 -142.3563)" fill="none" width="12.7" height="12.7"/>
	
		<rect x="183.9" y="66.5" transform="matrix(0.7071 0.7071 -0.7071 0.7071 107.2455 -113.2176)" fill="none" width="12.7" height="12.7"/>
	
		<rect x="169.4" y="81" transform="matrix(0.7071 0.7071 -0.7071 0.7071 113.2803 -98.6482)" fill="none" width="12.7" height="12.7"/>
	<polygon fill="none" points="132,151.3 124.1,159.2 140,159.2 	"/>
	
		<rect x="285.9" y="51.9" transform="matrix(0.7071 0.7071 -0.7071 0.7071 126.814 -189.5999)" fill="none" width="12.7" height="12.7"/>
	
		<rect x="81.9" y="51.9" transform="matrix(0.7071 0.7071 -0.7071 0.7071 67.0718 -45.3693)" fill="none" width="12.7" height="12.7"/>
	
		<rect x="373.3" y="139.3" transform="matrix(0.7071 0.7071 -0.7071 0.7071 214.2312 -225.8092)" fill="none" width="12.7" height="12.7"/>
	
		<rect x="213.1" y="124.8" transform="matrix(0.7071 0.7071 -0.7071 0.7071 156.9883 -116.7526)" fill="none" width="12.7" height="12.7"/>
	<polygon fill="none" points="1.6,79.1 1.6,95.7 9.9,87.4 	"/>
	<polygon fill="none" points="190.3,151.3 182.3,159.2 198.2,159.2 	"/>
	<polygon fill="none" points="1.6,108.2 1.6,124.9 9.9,116.6 	"/>
	
		<rect x="198.5" y="139.3" transform="matrix(0.7071 0.7071 -0.7071 0.7071 163.0233 -102.1831)" fill="none" width="12.7" height="12.7"/>
	
		<rect x="271.3" y="66.5" transform="matrix(0.7071 0.7071 -0.7071 0.7071 132.849 -175.0303)" fill="none" width="12.7" height="12.7"/>
	
		<rect x="256.8" y="81" transform="matrix(0.7071 0.7071 -0.7071 0.7071 138.8839 -160.4607)" fill="none" width="12.7" height="12.7"/>
	<rect x="9.1" y="8.2" transform="matrix(0.7071 0.7071 -0.7071 0.7071 14.8286 -6.6604)" fill="none" width="12.7" height="12.7"/>
	<polygon fill="none" points="50.2,0 59.2,9 68.2,0 	"/>
	
		<rect x="242.2" y="95.6" transform="matrix(0.7071 0.7071 -0.7071 0.7071 144.9187 -145.8913)" fill="none" width="12.7" height="12.7"/>
	<polygon fill="none" points="393.3,123.1 385.3,131.1 393.3,139.1 	"/>
	
		<rect x="227.6" y="110.2" transform="matrix(0.7071 0.7071 -0.7071 0.7071 150.9535 -131.322)" fill="none" width="12.7" height="12.7"/>
	
		<rect x="183.9" y="95.6" transform="matrix(0.7071 0.7071 -0.7071 0.7071 127.8495 -104.6829)" fill="none" width="12.7" height="12.7"/>
	<polygon fill="none" points="393.3,94 385.3,102 393.3,110 	"/>
	
		<rect x="198.5" y="81" transform="matrix(0.7071 0.7071 -0.7071 0.7071 121.8147 -119.2523)" fill="none" width="12.7" height="12.7"/>
	
		<rect x="256.8" y="22.8" transform="matrix(0.7071 0.7071 -0.7071 0.7071 97.6752 -177.5302)" fill="none" width="12.7" height="12.7"/>
	
		<rect x="373.3" y="110.2" transform="matrix(0.7071 0.7071 -0.7071 0.7071 193.6267 -234.3437)" fill="none" width="12.7" height="12.7"/>
	<polygon fill="none" points="301.3,0 283.3,0 283.3,0 292.3,9 	"/>
	
		<rect x="242.2" y="8.2" transform="matrix(0.7071 0.7071 -0.7071 0.7071 83.106 -171.4954)" fill="none" width="12.7" height="12.7"/>
	
		<rect x="96.5" y="37.3" transform="matrix(0.7071 0.7071 -0.7071 0.7071 61.0369 -59.9389)" fill="none" width="12.7" height="12.7"/>
	
		<rect x="271.3" y="8.2" transform="matrix(0.7071 0.7071 -0.7071 0.7071 91.6403 -192.0996)" fill="none" width="12.7" height="12.7"/>
	
		<rect x="344.2" y="139.3" transform="matrix(0.7071 0.7071 -0.7071 0.7071 205.6965 -205.2047)" fill="none" width="12.7" height="12.7"/>
	<polygon fill="none" points="272.1,0 272.1,0 254.1,0 254.1,0 263.1,9 	"/>
	
		<rect x="227.6" y="51.9" transform="matrix(0.7071 0.7071 -0.7071 0.7071 109.745 -148.391)" fill="none" width="12.7" height="12.7"/>
	
		<rect x="358.8" y="124.8" transform="matrix(0.7071 0.7071 -0.7071 0.7071 199.6616 -219.7743)" fill="none" width="12.7" height="12.7"/>
	
		<rect x="242.2" y="37.3" transform="matrix(0.7071 0.7071 -0.7071 0.7071 103.7101 -162.9606)" fill="none" width="12.7" height="12.7"/>
	
		<rect x="213.1" y="66.5" transform="matrix(0.7071 0.7071 -0.7071 0.7071 115.7799 -133.8216)" fill="none" width="12.7" height="12.7"/>
	
		<rect x="344.2" y="81" transform="matrix(0.7071 0.7071 -0.7071 0.7071 164.4873 -222.2738)" fill="none" width="12.7" height="12.7"/>
	
		<rect x="373.3" y="51.9" transform="matrix(0.7071 0.7071 -0.7071 0.7071 152.4175 -251.4128)" fill="none" width="12.7" height="12.7"/>
	
		<rect x="154.8" y="124.8" transform="matrix(0.7071 0.7071 -0.7071 0.7071 139.9193 -75.5438)" fill="none" width="12.7" height="12.7"/>
	<polygon fill="none" points="393.3,35.7 385.3,43.7 393.3,51.7 	"/>
	
		<rect x="227.6" y="22.8" transform="matrix(0.7071 0.7071 -0.7071 0.7071 89.1409 -156.9258)" fill="none" width="12.7" height="12.7"/>
	
		<rect x="140.2" y="139.3" transform="matrix(0.7071 0.7071 -0.7071 0.7071 145.9542 -60.9744)" fill="none" width="12.7" height="12.7"/>
	
		<rect x="358.8" y="66.5" transform="matrix(0.7071 0.7071 -0.7071 0.7071 158.4525 -236.8432)" fill="none" width="12.7" height="12.7"/>
	
		<rect x="67.4" y="8.2" transform="matrix(0.7071 0.7071 -0.7071 0.7071 31.898 -47.8692)" fill="none" width="12.7" height="12.7"/>
	
		<rect x="169.4" y="110.2" transform="matrix(0.7071 0.7071 -0.7071 0.7071 133.8844 -90.1134)" fill="none" width="12.7" height="12.7"/>
	
		<rect x="111.1" y="22.8" transform="matrix(0.7071 0.7071 -0.7071 0.7071 55.002 -74.5085)" fill="none" width="12.7" height="12.7"/>
	
		<rect x="23.7" y="51.9" transform="matrix(0.7071 0.7071 -0.7071 0.7071 50.0026 -4.1608)" fill="none" width="12.7" height="12.7"/>
	<polygon fill="none" points="365.1,151.3 357.2,159.2 373.1,159.2 	"/>
	
		<rect x="52.8" y="22.8" transform="matrix(0.7071 0.7071 -0.7071 0.7071 37.9329 -33.2996)" fill="none" width="12.7" height="12.7"/>
	
		<rect x="9.1" y="66.5" transform="matrix(0.7071 0.7071 -0.7071 0.7071 56.0376 10.4088)" fill="none" width="12.7" height="12.7"/>
	
		<rect x="38.2" y="37.3" transform="matrix(0.7071 0.7071 -0.7071 0.7071 43.9678 -18.7302)" fill="none" width="12.7" height="12.7"/>
	
		<rect x="315" y="22.8" transform="matrix(0.7071 0.7071 -0.7071 0.7071 114.7443 -218.7387)" fill="none" width="12.7" height="12.7"/>
	<polygon fill="none" points="312.4,0 321.4,9 330.4,0 	"/>
	
		<rect x="111.1" y="51.9" transform="matrix(0.7071 0.7071 -0.7071 0.7071 75.6062 -65.9737)" fill="none" width="12.7" height="12.7"/>
	<polygon fill="none" points="102.9,151.3 94.9,159.2 110.8,159.2 	"/>
	
		<rect x="125.6" y="37.3" transform="matrix(0.7071 0.7071 -0.7071 0.7071 69.5713 -80.5433)" fill="none" width="12.7" height="12.7"/>
	<polygon fill="none" points="341.5,0 350.6,9 359.6,0 	"/>
	
		<rect x="154.8" y="8.2" transform="matrix(0.7071 0.7071 -0.7071 0.7071 57.5016 -109.682)" fill="none" width="12.7" height="12.7"/>
	
		<rect x="140.2" y="22.8" transform="matrix(0.7071 0.7071 -0.7071 0.7071 63.5364 -95.1127)" fill="none" width="12.7" height="12.7"/>
	
		<rect x="96.5" y="66.5" transform="matrix(0.7071 0.7071 -0.7071 0.7071 81.6411 -51.4041)" fill="none" width="12.7" height="12.7"/>
	
		<rect x="38.2" y="124.8" transform="matrix(0.7071 0.7071 -0.7071 0.7071 105.7806 6.8738)" fill="none" width="12.7" height="12.7"/>
	
		<rect x="52.8" y="110.2" transform="matrix(0.7071 0.7071 -0.7071 0.7071 99.7466 -7.6954)" fill="none" width="12.7" height="12.7"/>
	
		<rect x="23.7" y="139.3" transform="matrix(0.7071 0.7071 -0.7071 0.7071 111.8147 21.4427)" fill="none" width="12.7" height="12.7"/>
	
		<rect x="67.4" y="95.6" transform="matrix(0.7071 0.7071 -0.7071 0.7071 93.71 -22.2655)" fill="none" width="12.7" height="12.7"/>
	
		<rect x="111.1" y="139.3" transform="matrix(0.7071 0.7071 -0.7071 0.7071 137.4199 -40.3702)" fill="none" width="12.7" height="12.7"/>
	
		<rect x="140.2" y="51.9" transform="matrix(0.7071 0.7071 -0.7071 0.7071 84.1409 -86.5782)" fill="none" width="12.7" height="12.7"/>
	<polygon fill="none" points="393.3,64.8 385.3,72.8 393.3,80.9 	"/>
	
		<rect x="344.2" y="51.9" transform="matrix(0.7071 0.7071 -0.7071 0.7071 143.8831 -230.8084)" fill="none" width="12.7" height="12.7"/>
	
		<rect x="52.8" y="139.3" transform="matrix(0.7071 0.7071 -0.7071 0.7071 120.3503 0.8388)" fill="none" width="12.7" height="12.7"/>
	<polygon fill="none" points="44.6,151.3 36.6,159.2 52.5,159.2 	"/>
	
		<rect x="67.4" y="124.8" transform="matrix(0.7071 0.7071 -0.7071 0.7071 114.3144 -13.7309)" fill="none" width="12.7" height="12.7"/>
	
		<rect x="358.8" y="8.2" transform="matrix(0.7071 0.7071 -0.7071 0.7071 117.2442 -253.9128)" fill="none" width="12.7" height="12.7"/>
	
		<rect x="125.6" y="124.8" transform="matrix(0.7071 0.7071 -0.7071 0.7071 131.385 -54.9396)" fill="none" width="12.7" height="12.7"/>
	<polygon fill="none" points="388.7,0 370.7,0 379.7,9 388.7,0 	"/>
	
		<rect x="96.5" y="95.6" transform="matrix(0.7071 0.7071 -0.7071 0.7071 102.2456 -42.8697)" fill="none" width="12.7" height="12.7"/>
	
		<rect x="111.1" y="81" transform="matrix(0.7071 0.7071 -0.7071 0.7071 96.2107 -57.4391)" fill="none" width="12.7" height="12.7"/>
	
		<rect x="125.6" y="66.5" transform="matrix(0.7071 0.7071 -0.7071 0.7071 90.1758 -72.0087)" fill="none" width="12.7" height="12.7"/>
	<polygon fill="none" points="213.9,0 195.9,0 204.9,9 213.9,0 	"/>
	<polygon fill="none" points="155.6,0 137.6,0 137.6,0 146.6,9 	"/>
	
		<rect x="81.9" y="110.2" transform="matrix(0.7071 0.7071 -0.7071 0.7071 108.2805 -28.3002)" fill="none" width="12.7" height="12.7"/>
	
		<rect x="81.9" y="81" transform="matrix(0.7071 0.7071 -0.7071 0.7071 87.6759 -36.8347)" fill="none" width="12.7" height="12.7"/>
	
		<rect x="154.8" y="37.3" transform="matrix(0.7071 0.7071 -0.7071 0.7071 78.1061 -101.1476)" fill="none" width="12.7" height="12.7"/>
	
		<rect x="169.3" y="22.8" transform="matrix(0.7071 0.7071 -0.7071 0.7071 72.0713 -115.7169)" fill="none" width="12.7" height="12.7"/>
	
		<rect x="38.2" y="95.6" transform="matrix(0.7071 0.7071 -0.7071 0.7071 85.1764 -1.6609)" fill="none" width="12.7" height="12.7"/>
	<polygon fill="none" points="15.5,151.3 7.5,159.2 23.4,159.2 	"/>
	<polygon fill="none" points="166.7,0 175.7,9 184.7,0 	"/>
	<polygon fill="none" points="1.6,137.4 1.6,154 9.9,145.7 	"/>
	
		<rect x="140.2" y="110.2" transform="matrix(0.7071 0.7071 -0.7071 0.7071 125.3502 -69.509)" fill="none" width="12.7" height="12.7"/>
	<polygon fill="none" points="97.3,0 79.3,0 88.3,9 97.3,0 	"/>
	
		<rect x="52.8" y="81" transform="matrix(0.7071 0.7071 -0.7071 0.7071 79.1415 -16.2305)" fill="none" width="12.7" height="12.7"/>
	
		<rect x="183.9" y="8.2" transform="matrix(0.7071 0.7071 -0.7071 0.7071 66.0364 -130.2863)" fill="none" width="12.7" height="12.7"/>
	
		<rect x="67.4" y="66.5" transform="matrix(0.7071 0.7071 -0.7071 0.7071 73.1066 -30.7999)" fill="none" width="12.7" height="12.7"/>
	<polygon fill="#808080" points="6.4,14.6 15.5,5.6 9.9,0 9.9,0 1.6,8.3 1.6,9.7 	"/>
	
		<rect x="18.8" y="15.5" transform="matrix(0.7071 0.7071 -0.7071 0.7071 22.1134 -9.6779)" fill="#808080" width="7.9" height="12.7"/>
	<polygon fill="#808080" points="6.4,43.7 15.5,34.7 9.9,29.1 1.6,37.5 1.6,38.8 	"/>
	<polygon fill="#808080" points="44.6,5.6 39,0 39,0 30,9 35.6,14.6 	"/>
	
		<rect x="47.9" y="15.5" transform="matrix(0.7071 0.7071 -0.7071 0.7071 30.648 -30.2821)" fill="#808080" width="7.9" height="12.7"/>
	<polygon fill="#808080" points="73.7,5.6 68.2,0 68.2,0 59.2,9 64.7,14.6 	"/>
	<polygon fill="#808080" points="6.4,72.8 15.5,63.8 9.9,58.3 1.6,66.6 1.6,68 	"/>
	
		<rect x="33.4" y="30.1" transform="matrix(0.7071 0.7071 -0.7071 0.7071 36.6829 -15.7127)" fill="#808080" width="7.9" height="12.7"/>
	
		<rect x="18.8" y="44.6" transform="matrix(0.7071 0.7071 -0.7071 0.7071 42.7177 -1.1433)" fill="#808080" width="7.9" height="12.7"/>
	
		<rect x="91.7" y="0.9" transform="matrix(0.7071 0.7071 -0.7071 0.7071 33.1481 -65.4563)" fill="#808080" width="7.9" height="12.7"/>
	
		<rect x="47.9" y="44.6" transform="matrix(0.7071 0.7071 -0.7071 0.7071 51.2528 -21.7477)" fill="#808080" width="7.9" height="12.7"/>
	<polygon fill="#808080" points="108.4,0 108.4,0 108.4,0 	"/>
	
		<rect x="77.1" y="15.5" transform="matrix(0.7071 0.7071 -0.7071 0.7071 39.183 -50.8868)" fill="#808080" width="7.9" height="12.7"/>
	
		<rect x="18.8" y="73.8" transform="matrix(0.7071 0.7071 -0.7071 0.7071 63.3225 7.3913)" fill="#808080" width="7.9" height="12.7"/>
	
		<rect x="62.5" y="30.1" transform="matrix(0.7071 0.7071 -0.7071 0.7071 45.2179 -36.3172)" fill="#808080" width="7.9" height="12.7"/>
	
		<rect x="33.4" y="59.2" transform="matrix(0.7071 0.7071 -0.7071 0.7071 57.2876 -7.1783)" fill="#808080" width="7.9" height="12.7"/>
	<polygon fill="#808080" points="6.4,102 15.5,93 9.9,87.4 1.6,95.7 1.6,97.1 	"/>
	
		<rect x="33.4" y="88.3" transform="matrix(0.7071 0.7071 -0.7071 0.7071 77.8919 1.3564)" fill="#808080" width="7.9" height="12.7"/>
	<polygon fill="#808080" points="6.4,131.1 15.5,122.1 9.9,116.6 1.6,124.9 1.6,126.3 	"/>
	
		<rect x="91.7" y="30.1" transform="matrix(0.7071 0.7071 -0.7071 0.7071 53.7524 -56.9216)" fill="#808080" width="7.9" height="12.7"/>
	
		<rect x="120.8" y="0.9" transform="matrix(0.7071 0.7071 -0.7071 0.7071 41.6826 -86.0605)" fill="#808080" width="7.9" height="12.7"/>
	
		<rect x="47.9" y="73.8" transform="matrix(0.7071 0.7071 -0.7071 0.7071 71.857 -13.2132)" fill="#808080" width="7.9" height="12.7"/>
	<polygon fill="#808080" points="137.6,0 137.6,0 137.6,0 	"/>
	
		<rect x="77.1" y="44.6" transform="matrix(0.7071 0.7071 -0.7071 0.7071 59.7873 -42.352)" fill="#808080" width="7.9" height="12.7"/>
	
		<rect x="106.2" y="15.5" transform="matrix(0.7071 0.7071 -0.7071 0.7071 47.7175 -71.4911)" fill="#808080" width="7.9" height="12.7"/>
	
		<rect x="18.8" y="102.9" transform="matrix(0.7071 0.7071 -0.7071 0.7071 83.9268 15.926)" fill="#808080" width="7.9" height="12.7"/>
	
		<rect x="62.5" y="59.2" transform="matrix(0.7071 0.7071 -0.7071 0.7071 65.8222 -27.7826)" fill="#808080" width="7.9" height="12.7"/>
	
		<rect x="91.7" y="59.2" transform="matrix(0.7071 0.7071 -0.7071 0.7071 74.3563 -48.3867)" fill="#808080" width="7.9" height="12.7"/>
	
		<rect x="77.1" y="73.8" transform="matrix(0.7071 0.7071 -0.7071 0.7071 80.3911 -33.8172)" fill="#808080" width="7.9" height="12.7"/>
	
		<rect x="120.8" y="30.1" transform="matrix(0.7071 0.7071 -0.7071 0.7071 62.2864 -77.5258)" fill="#808080" width="7.9" height="12.7"/>
	
		<rect x="135.4" y="15.5" transform="matrix(0.7071 0.7071 -0.7071 0.7071 56.2516 -92.0952)" fill="#808080" width="7.9" height="12.7"/>
	
		<rect x="62.5" y="88.3" transform="matrix(0.7071 0.7071 -0.7071 0.7071 86.426 -19.2478)" fill="#808080" width="7.9" height="12.7"/>
	<polygon fill="#808080" points="161.1,5.6 155.6,0 155.6,0 146.6,9 152.1,14.6 	"/>
	
		<rect x="47.9" y="102.9" transform="matrix(0.7071 0.7071 -0.7071 0.7071 92.4609 -4.6782)" fill="#808080" width="7.9" height="12.7"/>
	
		<rect x="18.8" y="132" transform="matrix(0.7071 0.7071 -0.7071 0.7071 104.5306 24.4607)" fill="#808080" width="7.9" height="12.7"/>
	<polygon fill="#808080" points="5.4,159.2 7.5,159.2 15.5,151.3 9.9,145.7 1.6,154 1.6,155.4 	"/>
	
		<rect x="106.2" y="44.6" transform="matrix(0.7071 0.7071 -0.7071 0.7071 68.3213 -62.9563)" fill="#808080" width="7.9" height="12.7"/>
	
		<rect x="33.4" y="117.5" transform="matrix(0.7071 0.7071 -0.7071 0.7071 98.4958 9.8913)" fill="#808080" width="7.9" height="12.7"/>
	<polygon fill="#808080" points="190.3,5.6 184.7,0 184.7,0 175.7,9 181.3,14.6 	"/>
	
		<rect x="77.1" y="102.9" transform="matrix(0.7071 0.7071 -0.7071 0.7071 100.9971 -25.2825)" fill="#808080" width="7.9" height="12.7"/>
	
		<rect x="135.4" y="44.6" transform="matrix(0.7071 0.7071 -0.7071 0.7071 76.8561 -83.5607)" fill="#808080" width="7.9" height="12.7"/>
	
		<rect x="62.5" y="117.5" transform="matrix(0.7071 0.7071 -0.7071 0.7071 107.0306 -10.7132)" fill="#808080" width="7.9" height="12.7"/>
	
		<rect x="120.8" y="59.2" transform="matrix(0.7071 0.7071 -0.7071 0.7071 82.891 -68.9912)" fill="#808080" width="7.9" height="12.7"/>
	
		<rect x="47.9" y="132" transform="matrix(0.7071 0.7071 -0.7071 0.7071 113.0654 3.8563)" fill="#808080" width="7.9" height="12.7"/>
	
		<rect x="164.5" y="15.5" transform="matrix(0.7071 0.7071 -0.7071 0.7071 64.7864 -112.6994)" fill="#808080" width="7.9" height="12.7"/>
	<polygon fill="#808080" points="36.6,159.2 44.6,151.3 39,145.7 30,154.7 34.5,159.2 	"/>
	
		<rect x="149.9" y="30.1" transform="matrix(0.7071 0.7071 -0.7071 0.7071 70.8212 -98.1302)" fill="#808080" width="7.9" height="12.7"/>
	
		<rect x="91.7" y="88.3" transform="matrix(0.7071 0.7071 -0.7071 0.7071 94.9608 -39.8522)" fill="#808080" width="7.9" height="12.7"/>
	
		<rect x="106.2" y="73.8" transform="matrix(0.7071 0.7071 -0.7071 0.7071 88.9259 -54.4216)" fill="#808080" width="7.9" height="12.7"/>
	<polygon fill="#808080" points="225,0 225,0 225,0 	"/>
	
		<rect x="193.6" y="15.5" transform="matrix(0.7071 0.7071 -0.7071 0.7071 73.3212 -133.3038)" fill="#808080" width="7.9" height="12.7"/>
	
		<rect x="106.2" y="102.9" transform="matrix(0.7071 0.7071 -0.7071 0.7071 109.5304 -45.8871)" fill="#808080" width="7.9" height="12.7"/>
	
		<rect x="135.4" y="73.8" transform="matrix(0.7071 0.7071 -0.7071 0.7071 97.4606 -75.0262)" fill="#808080" width="7.9" height="12.7"/>
	
		<rect x="120.8" y="88.3" transform="matrix(0.7071 0.7071 -0.7071 0.7071 103.4956 -60.4566)" fill="#808080" width="7.9" height="12.7"/>
	
		<rect x="77.1" y="132" transform="matrix(0.7071 0.7071 -0.7071 0.7071 121.6002 -16.7481)" fill="#808080" width="7.9" height="12.7"/>
	
		<rect x="208.2" y="0.9" transform="matrix(0.7071 0.7071 -0.7071 0.7071 67.2863 -147.8734)" fill="#808080" width="7.9" height="12.7"/>
	
		<rect x="149.9" y="59.2" transform="matrix(0.7071 0.7071 -0.7071 0.7071 91.4257 -89.5957)" fill="#808080" width="7.9" height="12.7"/>
	<polygon fill="#808080" points="65.8,159.2 73.7,151.3 68.2,145.7 59.2,154.7 63.7,159.2 	"/>
	
		<rect x="179.1" y="30.1" transform="matrix(0.7071 0.7071 -0.7071 0.7071 79.3561 -118.7344)" fill="#808080" width="7.9" height="12.7"/>
	
		<rect x="164.5" y="44.6" transform="matrix(0.7071 0.7071 -0.7071 0.7071 85.3909 -104.1651)" fill="#808080" width="7.9" height="12.7"/>
	
		<rect x="91.7" y="117.5" transform="matrix(0.7071 0.7071 -0.7071 0.7071 115.5653 -31.3177)" fill="#808080" width="7.9" height="12.7"/>
	
		<rect x="149.9" y="88.3" transform="matrix(0.7071 0.7071 -0.7071 0.7071 112.0305 -81.0612)" fill="#808080" width="7.9" height="12.7"/>
	
		<rect x="135.4" y="102.9" transform="matrix(0.7071 0.7071 -0.7071 0.7071 118.0655 -66.4916)" fill="#808080" width="7.9" height="12.7"/>
	
		<rect x="164.5" y="73.8" transform="matrix(0.7071 0.7071 -0.7071 0.7071 105.9956 -95.6307)" fill="#808080" width="7.9" height="12.7"/>
	
		<rect x="208.2" y="30.1" transform="matrix(0.7071 0.7071 -0.7071 0.7071 87.8911 -139.3389)" fill="#808080" width="7.9" height="12.7"/>
	
		<rect x="222.8" y="15.5" transform="matrix(0.7071 0.7071 -0.7071 0.7071 81.8562 -153.9084)" fill="#808080" width="7.9" height="12.7"/>
	
		<rect x="120.8" y="117.5" transform="matrix(0.7071 0.7071 -0.7071 0.7071 124.1003 -51.9222)" fill="#808080" width="7.9" height="12.7"/>
	
		<rect x="193.6" y="44.6" transform="matrix(0.7071 0.7071 -0.7071 0.7071 93.926 -124.7694)" fill="#808080" width="7.9" height="12.7"/>
	
		<rect x="179.1" y="59.2" transform="matrix(0.7071 0.7071 -0.7071 0.7071 99.9608 -110.2001)" fill="#808080" width="7.9" height="12.7"/>
	
		<rect x="237.3" y="0.9" transform="matrix(0.7071 0.7071 -0.7071 0.7071 75.8213 -168.478)" fill="#808080" width="7.9" height="12.7"/>
	<polygon fill="#808080" points="254.1,0 254.1,0 254.1,0 	"/>
	<polygon fill="#808080" points="94.9,159.2 102.9,151.3 97.3,145.7 88.3,154.7 92.8,159.2 	"/>
	
		<rect x="106.2" y="132" transform="matrix(0.7071 0.7071 -0.7071 0.7071 130.1352 -37.3528)" fill="#808080" width="7.9" height="12.7"/>
	
		<rect x="251.9" y="15.5" transform="matrix(0.7071 0.7071 -0.7071 0.7071 90.3907 -174.5128)" fill="#808080" width="7.9" height="12.7"/>
	
		<rect x="208.2" y="59.2" transform="matrix(0.7071 0.7071 -0.7071 0.7071 108.4954 -130.8043)" fill="#808080" width="7.9" height="12.7"/>
	
		<rect x="193.6" y="73.8" transform="matrix(0.7071 0.7071 -0.7071 0.7071 114.5302 -116.235)" fill="#808080" width="7.9" height="12.7"/>
	
		<rect x="179.1" y="88.3" transform="matrix(0.7071 0.7071 -0.7071 0.7071 120.565 -101.6656)" fill="#808080" width="7.9" height="12.7"/>
	
		<rect x="237.3" y="30.1" transform="matrix(0.7071 0.7071 -0.7071 0.7071 96.4257 -159.9433)" fill="#808080" width="7.9" height="12.7"/>
	<polygon fill="#808080" points="124.1,159.2 132,151.3 126.4,145.7 117.4,154.7 121.9,159.2 	"/>
	
		<rect x="164.5" y="102.9" transform="matrix(0.7071 0.7071 -0.7071 0.7071 126.6 -87.0961)" fill="#808080" width="7.9" height="12.7"/>
	<polygon fill="#808080" points="283.3,0 283.3,0 283.3,0 	"/>
	
		<rect x="135.4" y="132" transform="matrix(0.7071 0.7071 -0.7071 0.7071 138.6697 -57.957)" fill="#808080" width="7.9" height="12.7"/>
	
		<rect x="149.9" y="117.5" transform="matrix(0.7071 0.7071 -0.7071 0.7071 132.6349 -72.5265)" fill="#808080" width="7.9" height="12.7"/>
	
		<rect x="222.8" y="44.6" transform="matrix(0.7071 0.7071 -0.7071 0.7071 102.4606 -145.3737)" fill="#808080" width="7.9" height="12.7"/>
	
		<rect x="266.5" y="0.9" transform="matrix(0.7071 0.7071 -0.7071 0.7071 84.3559 -189.0823)" fill="#808080" width="7.9" height="12.7"/>
	<polygon fill="#808080" points="153.2,159.2 161.1,151.3 155.6,145.7 146.6,154.7 151.1,159.2 	"/>
	
		<rect x="266.5" y="30.1" transform="matrix(0.7071 0.7071 -0.7071 0.7071 104.9597 -180.5475)" fill="#808080" width="7.9" height="12.7"/>
	
		<rect x="179.1" y="117.5" transform="matrix(0.7071 0.7071 -0.7071 0.7071 141.1689 -93.1307)" fill="#808080" width="7.9" height="12.7"/>
	<polygon fill="#808080" points="306.8,5.6 301.3,0 301.3,0 292.3,9 297.8,14.6 	"/>
	
		<rect x="281.1" y="15.5" transform="matrix(0.7071 0.7071 -0.7071 0.7071 98.9248 -195.1169)" fill="#808080" width="7.9" height="12.7"/>
	
		<rect x="251.9" y="44.6" transform="matrix(0.7071 0.7071 -0.7071 0.7071 110.9946 -165.9779)" fill="#808080" width="7.9" height="12.7"/>
	
		<rect x="164.5" y="132" transform="matrix(0.7071 0.7071 -0.7071 0.7071 147.2038 -78.5611)" fill="#808080" width="7.9" height="12.7"/>
	
		<rect x="208.2" y="88.3" transform="matrix(0.7071 0.7071 -0.7071 0.7071 129.0991 -122.2697)" fill="#808080" width="7.9" height="12.7"/>
	
		<rect x="237.3" y="59.2" transform="matrix(0.7071 0.7071 -0.7071 0.7071 117.0295 -151.4084)" fill="#808080" width="7.9" height="12.7"/>
	
		<rect x="193.6" y="102.9" transform="matrix(0.7071 0.7071 -0.7071 0.7071 135.134 -107.7002)" fill="#808080" width="7.9" height="12.7"/>
	
		<rect x="222.8" y="73.8" transform="matrix(0.7071 0.7071 -0.7071 0.7071 123.0643 -136.8389)" fill="#808080" width="7.9" height="12.7"/>
	<polygon fill="#808080" points="336,5.6 330.4,0 330.4,0 321.4,9 327,14.6 	"/>
	
		<rect x="193.6" y="132" transform="matrix(0.7071 0.7071 -0.7071 0.7071 155.7383 -99.1655)" fill="#808080" width="7.9" height="12.7"/>
	<polygon fill="#808080" points="182.3,159.2 190.3,151.3 184.7,145.7 175.7,154.7 180.2,159.2 	"/>
	
		<rect x="310.2" y="15.5" transform="matrix(0.7071 0.7071 -0.7071 0.7071 107.4594 -215.7212)" fill="#808080" width="7.9" height="12.7"/>
	
		<rect x="222.8" y="102.9" transform="matrix(0.7071 0.7071 -0.7071 0.7071 143.6685 -128.3045)" fill="#808080" width="7.9" height="12.7"/>
	
		<rect x="237.3" y="88.3" transform="matrix(0.7071 0.7071 -0.7071 0.7071 137.6338 -142.8738)" fill="#808080" width="7.9" height="12.7"/>
	
		<rect x="295.6" y="30.1" transform="matrix(0.7071 0.7071 -0.7071 0.7071 113.4942 -201.1517)" fill="#808080" width="7.9" height="12.7"/>
	
		<rect x="251.9" y="73.8" transform="matrix(0.7071 0.7071 -0.7071 0.7071 131.5989 -157.4432)" fill="#808080" width="7.9" height="12.7"/>
	
		<rect x="208.2" y="117.5" transform="matrix(0.7071 0.7071 -0.7071 0.7071 149.7034 -113.7351)" fill="#808080" width="7.9" height="12.7"/>
	
		<rect x="266.5" y="59.2" transform="matrix(0.7071 0.7071 -0.7071 0.7071 125.564 -172.0127)" fill="#808080" width="7.9" height="12.7"/>
	
		<rect x="281.1" y="44.6" transform="matrix(0.7071 0.7071 -0.7071 0.7071 119.5291 -186.5824)" fill="#808080" width="7.9" height="12.7"/>
	
		<rect x="237.3" y="117.5" transform="matrix(0.7071 0.7071 -0.7071 0.7071 158.2384 -134.3396)" fill="#808080" width="7.9" height="12.7"/>
	
		<rect x="295.6" y="59.2" transform="matrix(0.7071 0.7071 -0.7071 0.7071 134.099 -192.6174)" fill="#808080" width="7.9" height="12.7"/>
	
		<rect x="310.2" y="44.6" transform="matrix(0.7071 0.7071 -0.7071 0.7071 128.0641 -207.1868)" fill="#808080" width="7.9" height="12.7"/>
	
		<rect x="339.3" y="15.5" transform="matrix(0.7071 0.7071 -0.7071 0.7071 115.9944 -236.3258)" fill="#808080" width="7.9" height="12.7"/>
	
		<rect x="324.8" y="30.1" transform="matrix(0.7071 0.7071 -0.7071 0.7071 122.0293 -221.7562)" fill="#808080" width="7.9" height="12.7"/>
	<polygon fill="#808080" points="211.5,159.2 219.4,151.3 213.9,145.7 204.9,154.7 209.4,159.2 	"/>
	
		<rect x="251.9" y="102.9" transform="matrix(0.7071 0.7071 -0.7071 0.7071 152.2036 -148.9088)" fill="#808080" width="7.9" height="12.7"/>
	
		<rect x="266.5" y="88.3" transform="matrix(0.7071 0.7071 -0.7071 0.7071 146.1688 -163.4783)" fill="#808080" width="7.9" height="12.7"/>
	<polygon fill="#808080" points="365.1,5.6 359.6,0 359.6,0 350.6,9 356.1,14.6 	"/>
	
		<rect x="281.1" y="73.8" transform="matrix(0.7071 0.7071 -0.7071 0.7071 140.1339 -178.0478)" fill="#808080" width="7.9" height="12.7"/>
	
		<rect x="222.8" y="132" transform="matrix(0.7071 0.7071 -0.7071 0.7071 164.2733 -119.7701)" fill="#808080" width="7.9" height="12.7"/>
	
		<rect x="324.8" y="59.2" transform="matrix(0.7071 0.7071 -0.7071 0.7071 142.6335 -213.2216)" fill="#808080" width="7.9" height="12.7"/>
	
		<rect x="251.9" y="132" transform="matrix(0.7071 0.7071 -0.7071 0.7071 172.8078 -140.3744)" fill="#808080" width="7.9" height="12.7"/>
	
		<rect x="310.2" y="73.8" transform="matrix(0.7071 0.7071 -0.7071 0.7071 148.6684 -198.6523)" fill="#808080" width="7.9" height="12.7"/>
	<polygon fill="#808080" points="240.6,159.2 248.6,151.3 243,145.7 234,154.7 238.5,159.2 	"/>
	
		<rect x="339.3" y="44.6" transform="matrix(0.7071 0.7071 -0.7071 0.7071 136.5987 -227.791)" fill="#808080" width="7.9" height="12.7"/>
	
		<rect x="368.5" y="15.5" transform="matrix(0.7071 0.7071 -0.7071 0.7071 124.5289 -256.9302)" fill="#808080" width="7.9" height="12.7"/>
	
		<rect x="353.9" y="30.1" transform="matrix(0.7071 0.7071 -0.7071 0.7071 130.5638 -242.3606)" fill="#808080" width="7.9" height="12.7"/>
	
		<rect x="295.6" y="88.3" transform="matrix(0.7071 0.7071 -0.7071 0.7071 154.7033 -184.0826)" fill="#808080" width="7.9" height="12.7"/>
	<polygon fill="#808080" points="393.3,6.6 393.3,4.6 388.7,0 379.7,9 385.3,14.6 	"/>
	
		<rect x="281.1" y="102.9" transform="matrix(0.7071 0.7071 -0.7071 0.7071 160.7382 -169.5131)" fill="#808080" width="7.9" height="12.7"/>
	
		<rect x="266.5" y="117.5" transform="matrix(0.7071 0.7071 -0.7071 0.7071 166.7731 -154.9437)" fill="#808080" width="7.9" height="12.7"/>
	
		<rect x="368.5" y="44.6" transform="matrix(0.7071 0.7071 -0.7071 0.7071 145.1327 -248.3953)" fill="#808080" width="7.9" height="12.7"/>
	<polygon fill="#808080" points="393.3,35.7 393.3,33.7 388.7,29.1 379.7,38.1 385.3,43.7 	"/>
	
		<rect x="353.9" y="59.2" transform="matrix(0.7071 0.7071 -0.7071 0.7071 151.1676 -233.8257)" fill="#808080" width="7.9" height="12.7"/>
	
		<rect x="324.8" y="88.3" transform="matrix(0.7071 0.7071 -0.7071 0.7071 163.2373 -204.6869)" fill="#808080" width="7.9" height="12.7"/>
	<polygon fill="#808080" points="269.8,159.2 277.7,151.3 272.1,145.7 263.1,154.7 267.6,159.2 	"/>
	
		<rect x="281.1" y="132" transform="matrix(0.7071 0.7071 -0.7071 0.7071 181.342 -160.9783)" fill="#808080" width="7.9" height="12.7"/>
	
		<rect x="295.6" y="117.5" transform="matrix(0.7071 0.7071 -0.7071 0.7071 175.3071 -175.5477)" fill="#808080" width="7.9" height="12.7"/>
	
		<rect x="310.2" y="102.9" transform="matrix(0.7071 0.7071 -0.7071 0.7071 169.2722 -190.1173)" fill="#808080" width="7.9" height="12.7"/>
	
		<rect x="339.3" y="73.8" transform="matrix(0.7071 0.7071 -0.7071 0.7071 157.2025 -219.2563)" fill="#808080" width="7.9" height="12.7"/>
	
		<rect x="324.8" y="117.5" transform="matrix(0.7071 0.7071 -0.7071 0.7071 183.8419 -196.1522)" fill="#808080" width="7.9" height="12.7"/>
	
		<rect x="310.2" y="132" transform="matrix(0.7071 0.7071 -0.7071 0.7071 189.8768 -181.5827)" fill="#808080" width="7.9" height="12.7"/>
	
		<rect x="339.3" y="102.9" transform="matrix(0.7071 0.7071 -0.7071 0.7071 177.807 -210.7218)" fill="#808080" width="7.9" height="12.7"/>
	
		<rect x="353.9" y="88.3" transform="matrix(0.7071 0.7071 -0.7071 0.7071 171.7721 -225.2913)" fill="#808080" width="7.9" height="12.7"/>
	
		<rect x="368.5" y="73.8" transform="matrix(0.7071 0.7071 -0.7071 0.7071 165.7407 -239.8628)" fill="#808080" width="7.9" height="12.7"/>
	<polygon fill="#808080" points="298.9,159.2 306.8,151.3 301.3,145.7 292.3,154.7 296.8,159.2 	"/>
	<polygon fill="#808080" points="393.3,64.8 393.3,62.8 388.7,58.3 379.7,67.3 385.3,72.8 	"/>
	
		<rect x="368.5" y="102.9" transform="matrix(0.7071 0.7071 -0.7071 0.7071 186.3418 -231.3262)" fill="#808080" width="7.9" height="12.7"/>
	
		<rect x="339.3" y="132" transform="matrix(0.7071 0.7071 -0.7071 0.7071 198.4115 -202.1872)" fill="#808080" width="7.9" height="12.7"/>
	
		<rect x="353.9" y="117.5" transform="matrix(0.7071 0.7071 -0.7071 0.7071 192.3766 -216.7568)" fill="#808080" width="7.9" height="12.7"/>
	<polygon fill="#808080" points="328,159.2 336,151.3 330.4,145.7 321.4,154.7 325.9,159.2 	"/>
	<polygon fill="#808080" points="393.3,94 393.3,92 388.7,87.4 379.7,96.4 385.3,102 	"/>
	
		<rect x="368.5" y="132" transform="matrix(0.7071 0.7071 -0.7071 0.7071 206.9465 -222.7918)" fill="#808080" width="7.9" height="12.7"/>
	<polygon fill="#808080" points="393.3,123.1 393.3,121.1 388.7,116.6 379.7,125.6 385.3,131.1 	"/>
	<polygon fill="#808080" points="357.2,159.2 365.1,151.3 359.6,145.7 350.6,154.7 355.1,159.2 	"/>
	<polygon fill="#808080" points="386.3,159.2 393.3,152.3 393.3,150.3 388.7,145.7 379.7,154.7 384.2,159.2 	"/>
	<polygon fill="#CCCCCC" points="388.7,0 388.7,0 388.7,0 	"/>
	<polygon fill="#CCCCCC" points="393.3,4.6 393.3,0 388.7,0 388.7,0 	"/>
	<polygon fill="#CCCCCC" points="393.3,24.6 393.3,22.6 385.3,14.6 379.7,20.1 388.7,29.1 	"/>
	<polygon fill="#CCCCCC" points="379.7,9 370.7,0 370.7,0 365.1,5.6 374.1,14.6 	"/>
	<polygon fill="#CCCCCC" points="359.6,0 365.1,5.6 370.7,0 	"/>
	
		<rect x="375.8" y="10.6" transform="matrix(0.7071 0.7071 -0.7071 0.7071 121.5114 -264.2149)" fill="#CCCCCC" width="7.9" height="7.9"/>
	<polygon fill="#CCCCCC" points="393.3,24.6 388.7,29.1 393.3,33.7 	"/>
	
		<rect x="366" y="32.5" transform="matrix(0.7071 0.7071 -0.7071 0.7071 134.8308 -252.6628)" fill="#CCCCCC" width="12.7" height="7.9"/>
	<polygon fill="#CCCCCC" points="393.3,53.7 393.3,51.7 385.3,43.7 379.7,49.3 388.7,58.3 	"/>
	<polygon fill="#CCCCCC" points="350.6,9 341.5,0 341.5,0 336,5.6 345,14.6 	"/>
	
		<rect x="351.5" y="17.9" transform="matrix(0.7071 0.7071 -0.7071 0.7071 120.2616 -246.628)" fill="#CCCCCC" width="12.7" height="7.9"/>
	<polygon fill="#CCCCCC" points="330.4,0 336,5.6 341.5,0 	"/>
	
		<rect x="346.6" y="10.6" transform="matrix(0.7071 0.7071 -0.7071 0.7071 112.9769 -243.6106)" fill="#CCCCCC" width="7.9" height="7.9"/>
	
		<rect x="361.2" y="25.2" transform="matrix(0.7071 0.7071 -0.7071 0.7071 127.5463 -249.6454)" fill="#CCCCCC" width="7.9" height="7.9"/>
	
		<rect x="375.8" y="39.8" transform="matrix(0.7071 0.7071 -0.7071 0.7071 142.1153 -255.6801)" fill="#CCCCCC" width="7.9" height="7.9"/>
	<polygon fill="#CCCCCC" points="393.3,53.7 388.7,58.3 393.3,62.8 	"/>
	
		<rect x="336.9" y="32.5" transform="matrix(0.7071 0.7071 -0.7071 0.7071 126.2965 -232.0585)" fill="#CCCCCC" width="12.7" height="7.9"/>
	
		<rect x="351.5" y="47.1" transform="matrix(0.7071 0.7071 -0.7071 0.7071 140.8657 -238.0932)" fill="#CCCCCC" width="12.7" height="7.9"/>
	<polygon fill="#CCCCCC" points="393.3,82.9 393.3,80.9 385.3,72.8 379.7,78.4 388.7,87.4 	"/>
	
		<rect x="366" y="61.6" transform="matrix(0.7071 0.7071 -0.7071 0.7071 155.437 -244.1294)" fill="#CCCCCC" width="12.7" height="7.9"/>
	
		<rect x="322.3" y="17.9" transform="matrix(0.7071 0.7071 -0.7071 0.7071 111.7269 -226.0235)" fill="#CCCCCC" width="12.7" height="7.9"/>
	<polygon fill="#CCCCCC" points="321.4,9 312.4,0 312.4,0 306.8,5.6 315.9,14.6 	"/>
	<polygon fill="#CCCCCC" points="301.3,0 306.8,5.6 312.4,0 	"/>
	
		<rect x="317.5" y="10.6" transform="matrix(0.7071 0.7071 -0.7071 0.7071 104.4419 -223.006)" fill="#CCCCCC" width="7.9" height="7.9"/>
	
		<rect x="332" y="25.2" transform="matrix(0.7071 0.7071 -0.7071 0.7071 119.0118 -229.0411)" fill="#CCCCCC" width="7.9" height="7.9"/>
	
		<rect x="346.6" y="39.8" transform="matrix(0.7071 0.7071 -0.7071 0.7071 133.5812 -235.0759)" fill="#CCCCCC" width="7.9" height="7.9"/>
	
		<rect x="361.2" y="54.3" transform="matrix(0.7071 0.7071 -0.7071 0.7071 148.1502 -241.1105)" fill="#CCCCCC" width="7.9" height="7.9"/>
	
		<rect x="375.8" y="68.9" transform="matrix(0.7071 0.7071 -0.7071 0.7071 162.7198 -247.1455)" fill="#CCCCCC" width="7.9" height="7.9"/>
	<polygon fill="#CCCCCC" points="393.3,82.9 388.7,87.4 393.3,92 	"/>
	
		<rect x="351.5" y="76.2" transform="matrix(0.7071 0.7071 -0.7071 0.7071 161.4699 -229.5584)" fill="#CCCCCC" width="12.7" height="7.9"/>
	<polygon fill="#CCCCCC" points="393.3,112 393.3,110 385.3,102 379.7,107.5 388.7,116.6 	"/>
	<polygon fill="#CCCCCC" points="272.1,0 272.1,0 272.1,0 	"/>
	
		<rect x="366" y="90.8" transform="matrix(0.7071 0.7071 -0.7071 0.7071 176.0396 -235.5933)" fill="#CCCCCC" width="12.7" height="7.9"/>
	
		<rect x="307.8" y="32.5" transform="matrix(0.7071 0.7071 -0.7071 0.7071 117.7618 -211.4539)" fill="#CCCCCC" width="12.7" height="7.9"/>
	
		<rect x="336.9" y="61.6" transform="matrix(0.7071 0.7071 -0.7071 0.7071 146.9006 -223.5235)" fill="#CCCCCC" width="12.7" height="7.9"/>
	
		<rect x="322.3" y="47.1" transform="matrix(0.7071 0.7071 -0.7071 0.7071 132.3315 -217.4888)" fill="#CCCCCC" width="12.7" height="7.9"/>
	
		<rect x="278.6" y="3.4" transform="matrix(0.7071 0.7071 -0.7071 0.7071 88.623 -199.3842)" fill="#CCCCCC" width="12.7" height="7.9"/>
	
		<rect x="293.2" y="17.9" transform="matrix(0.7071 0.7071 -0.7071 0.7071 103.1921 -205.4189)" fill="#CCCCCC" width="12.7" height="7.9"/>
	<polygon fill="#CCCCCC" points="283.3,0 283.3,0 272.1,0 272.1,0 277.7,5.6 	"/>
	
		<rect x="288.3" y="10.6" transform="matrix(0.7071 0.7071 -0.7071 0.7071 95.9074 -202.4015)" fill="#CCCCCC" width="7.9" height="7.9"/>
	
		<rect x="302.9" y="25.2" transform="matrix(0.7071 0.7071 -0.7071 0.7071 110.4769 -208.4364)" fill="#CCCCCC" width="7.9" height="7.9"/>
	
		<rect x="317.5" y="39.8" transform="matrix(0.7071 0.7071 -0.7071 0.7071 125.0467 -214.4714)" fill="#CCCCCC" width="7.9" height="7.9"/>
	
		<rect x="332" y="54.3" transform="matrix(0.7071 0.7071 -0.7071 0.7071 139.6162 -220.5063)" fill="#CCCCCC" width="7.9" height="7.9"/>
	
		<rect x="346.6" y="68.9" transform="matrix(0.7071 0.7071 -0.7071 0.7071 154.1851 -226.5409)" fill="#CCCCCC" width="7.9" height="7.9"/>
	
		<rect x="361.2" y="83.5" transform="matrix(0.7071 0.7071 -0.7071 0.7071 168.7547 -232.5758)" fill="#CCCCCC" width="7.9" height="7.9"/>
	
		<rect x="375.8" y="98.1" transform="matrix(0.7071 0.7071 -0.7071 0.7071 183.3244 -238.6108)" fill="#CCCCCC" width="7.9" height="7.9"/>
	<polygon fill="#CCCCCC" points="393.3,112 388.7,116.6 393.3,121.1 	"/>
	
		<rect x="249.5" y="3.4" transform="matrix(0.7071 0.7071 -0.7071 0.7071 80.0885 -178.7802)" fill="#CCCCCC" width="12.7" height="7.9"/>
	
		<rect x="278.6" y="32.5" transform="matrix(0.7071 0.7071 -0.7071 0.7071 109.2269 -190.8497)" fill="#CCCCCC" width="12.7" height="7.9"/>
	
		<rect x="351.5" y="105.3" transform="matrix(0.7071 0.7071 -0.7071 0.7071 182.0743 -221.0242)" fill="#CCCCCC" width="12.7" height="7.9"/>
	
		<rect x="264.1" y="17.9" transform="matrix(0.7071 0.7071 -0.7071 0.7071 94.6577 -184.815)" fill="#CCCCCC" width="12.7" height="7.9"/>
	
		<rect x="293.2" y="47.1" transform="matrix(0.7071 0.7071 -0.7071 0.7071 123.7966 -196.8847)" fill="#CCCCCC" width="12.7" height="7.9"/>
	
		<rect x="366" y="119.9" transform="matrix(0.7071 0.7071 -0.7071 0.7071 196.6441 -227.0591)" fill="#CCCCCC" width="12.7" height="7.9"/>
	
		<rect x="322.3" y="76.2" transform="matrix(0.7071 0.7071 -0.7071 0.7071 152.9354 -208.9544)" fill="#CCCCCC" width="12.7" height="7.9"/>
	<polygon fill="#CCCCCC" points="243,0 243,0 243,0 	"/>
	
		<rect x="336.9" y="90.8" transform="matrix(0.7071 0.7071 -0.7071 0.7071 167.5047 -214.9892)" fill="#CCCCCC" width="12.7" height="7.9"/>
	
		<rect x="307.8" y="61.6" transform="matrix(0.7071 0.7071 -0.7071 0.7071 138.3662 -202.9196)" fill="#CCCCCC" width="12.7" height="7.9"/>
	<polygon fill="#CCCCCC" points="393.3,141.1 393.3,139.1 385.3,131.1 379.7,136.7 388.7,145.7 	"/>
	<polygon fill="#CCCCCC" points="254.1,0 254.1,0 243,0 243,0 248.6,5.6 	"/>
	
		<rect x="259.2" y="10.6" transform="matrix(0.7071 0.7071 -0.7071 0.7071 87.3733 -181.7977)" fill="#CCCCCC" width="7.9" height="7.9"/>
	
		<rect x="273.8" y="25.2" transform="matrix(0.7071 0.7071 -0.7071 0.7071 101.9422 -187.8323)" fill="#CCCCCC" width="7.9" height="7.9"/>
	
		<rect x="288.3" y="39.8" transform="matrix(0.7071 0.7071 -0.7071 0.7071 116.5116 -193.8672)" fill="#CCCCCC" width="7.9" height="7.9"/>
	
		<rect x="302.9" y="54.3" transform="matrix(0.7071 0.7071 -0.7071 0.7071 131.0815 -199.9022)" fill="#CCCCCC" width="7.9" height="7.9"/>
	
		<rect x="317.5" y="68.9" transform="matrix(0.7071 0.7071 -0.7071 0.7071 145.6509 -205.937)" fill="#CCCCCC" width="7.9" height="7.9"/>
	
		<rect x="332" y="83.5" transform="matrix(0.7071 0.7071 -0.7071 0.7071 160.2199 -211.9717)" fill="#CCCCCC" width="7.9" height="7.9"/>
	
		<rect x="346.6" y="98.1" transform="matrix(0.7071 0.7071 -0.7071 0.7071 174.7895 -218.0067)" fill="#CCCCCC" width="7.9" height="7.9"/>
	
		<rect x="361.2" y="112.6" transform="matrix(0.7071 0.7071 -0.7071 0.7071 189.3592 -224.0416)" fill="#CCCCCC" width="7.9" height="7.9"/>
	
		<rect x="375.8" y="127.2" transform="matrix(0.7071 0.7071 -0.7071 0.7071 203.929 -230.0766)" fill="#CCCCCC" width="7.9" height="7.9"/>
	<polygon fill="#CCCCCC" points="393.3,141.1 388.7,145.7 393.3,150.3 	"/>
	
		<rect x="264.1" y="47.1" transform="matrix(0.7071 0.7071 -0.7071 0.7071 115.2618 -176.2801)" fill="#CCCCCC" width="12.7" height="7.9"/>
	
		<rect x="249.5" y="32.5" transform="matrix(0.7071 0.7071 -0.7071 0.7071 100.6927 -170.2453)" fill="#CCCCCC" width="12.7" height="7.9"/>
	
		<rect x="351.5" y="134.5" transform="matrix(0.7071 0.7071 -0.7071 0.7071 202.6791 -212.4895)" fill="#CCCCCC" width="12.7" height="7.9"/>
	<polygon fill="#CCCCCC" points="375.2,159.2 379.7,154.7 370.7,145.7 365.1,151.3 373.1,159.2 	"/>
	
		<rect x="220.3" y="3.4" transform="matrix(0.7071 0.7071 -0.7071 0.7071 71.5538 -158.1756)" fill="#CCCCCC" width="12.7" height="7.9"/>
	
		<rect x="234.9" y="17.9" transform="matrix(0.7071 0.7071 -0.7071 0.7071 86.1235 -164.2106)" fill="#CCCCCC" width="12.7" height="7.9"/>
	
		<rect x="293.2" y="76.2" transform="matrix(0.7071 0.7071 -0.7071 0.7071 144.4012 -188.35)" fill="#CCCCCC" width="12.7" height="7.9"/>
	
		<rect x="278.6" y="61.6" transform="matrix(0.7071 0.7071 -0.7071 0.7071 129.8315 -182.315)" fill="#CCCCCC" width="12.7" height="7.9"/>
	
		<rect x="322.3" y="105.3" transform="matrix(0.7071 0.7071 -0.7071 0.7071 173.5396 -200.4195)" fill="#CCCCCC" width="12.7" height="7.9"/>
	
		<rect x="307.8" y="90.8" transform="matrix(0.7071 0.7071 -0.7071 0.7071 158.9703 -194.3847)" fill="#CCCCCC" width="12.7" height="7.9"/>
	
		<rect x="336.9" y="119.9" transform="matrix(0.7071 0.7071 -0.7071 0.7071 188.1093 -206.4545)" fill="#CCCCCC" width="12.7" height="7.9"/>
	<polygon fill="#CCCCCC" points="213.9,0 213.9,0 213.9,0 	"/>
	<polygon fill="#CCCCCC" points="219.4,5.6 225,0 225,0 213.9,0 213.9,0 	"/>
	
		<rect x="230.1" y="10.6" transform="matrix(0.7071 0.7071 -0.7071 0.7071 78.8388 -161.1931)" fill="#CCCCCC" width="7.9" height="7.9"/>
	
		<rect x="244.6" y="25.2" transform="matrix(0.7071 0.7071 -0.7071 0.7071 93.4082 -167.228)" fill="#CCCCCC" width="7.9" height="7.9"/>
	
		<rect x="259.2" y="39.8" transform="matrix(0.7071 0.7071 -0.7071 0.7071 107.9771 -173.2627)" fill="#CCCCCC" width="7.9" height="7.9"/>
	
		<rect x="273.8" y="54.3" transform="matrix(0.7071 0.7071 -0.7071 0.7071 122.5465 -179.2975)" fill="#CCCCCC" width="7.9" height="7.9"/>
	
		<rect x="288.3" y="68.9" transform="matrix(0.7071 0.7071 -0.7071 0.7071 137.1165 -185.3326)" fill="#CCCCCC" width="7.9" height="7.9"/>
	
		<rect x="302.9" y="83.5" transform="matrix(0.7071 0.7071 -0.7071 0.7071 151.6859 -191.3674)" fill="#CCCCCC" width="7.9" height="7.9"/>
	
		<rect x="317.5" y="98.1" transform="matrix(0.7071 0.7071 -0.7071 0.7071 166.2548 -197.4021)" fill="#CCCCCC" width="7.9" height="7.9"/>
	
		<rect x="332" y="112.6" transform="matrix(0.7071 0.7071 -0.7071 0.7071 180.8245 -203.437)" fill="#CCCCCC" width="7.9" height="7.9"/>
	
		<rect x="346.6" y="127.2" transform="matrix(0.7071 0.7071 -0.7071 0.7071 195.3941 -209.472)" fill="#CCCCCC" width="7.9" height="7.9"/>
	
		<rect x="361.2" y="141.8" transform="matrix(0.7071 0.7071 -0.7071 0.7071 209.964 -215.507)" fill="#CCCCCC" width="7.9" height="7.9"/>
	<polygon fill="#CCCCCC" points="379.7,154.7 375.2,159.2 384.2,159.2 	"/>
	
		<rect x="293.2" y="105.3" transform="matrix(0.7071 0.7071 -0.7071 0.7071 165.0052 -179.8152)" fill="#CCCCCC" width="12.7" height="7.9"/>
	
		<rect x="264.1" y="76.2" transform="matrix(0.7071 0.7071 -0.7071 0.7071 135.8664 -167.7455)" fill="#CCCCCC" width="12.7" height="7.9"/>
	
		<rect x="220.3" y="32.5" transform="matrix(0.7071 0.7071 -0.7071 0.7071 92.1584 -149.6411)" fill="#CCCCCC" width="12.7" height="7.9"/>
	
		<rect x="278.6" y="90.8" transform="matrix(0.7071 0.7071 -0.7071 0.7071 150.436 -173.7804)" fill="#CCCCCC" width="12.7" height="7.9"/>
	
		<rect x="234.9" y="47.1" transform="matrix(0.7071 0.7071 -0.7071 0.7071 106.7276 -155.6758)" fill="#CCCCCC" width="12.7" height="7.9"/>
	
		<rect x="249.5" y="61.6" transform="matrix(0.7071 0.7071 -0.7071 0.7071 121.2968 -161.7106)" fill="#CCCCCC" width="12.7" height="7.9"/>
	
		<rect x="307.8" y="119.9" transform="matrix(0.7071 0.7071 -0.7071 0.7071 179.5745 -185.85)" fill="#CCCCCC" width="12.7" height="7.9"/>
	<polygon fill="#CCCCCC" points="204.9,9 195.9,0 195.9,0 190.3,5.6 199.3,14.6 	"/>
	
		<rect x="322.3" y="134.5" transform="matrix(0.7071 0.7071 -0.7071 0.7071 194.1442 -191.8849)" fill="#CCCCCC" width="12.7" height="7.9"/>
	<polygon fill="#CCCCCC" points="346,159.2 350.6,154.7 341.5,145.7 336,151.3 343.9,159.2 	"/>
	
		<rect x="205.8" y="17.9" transform="matrix(0.7071 0.7071 -0.7071 0.7071 77.5887 -143.6061)" fill="#CCCCCC" width="12.7" height="7.9"/>
	<polygon fill="#CCCCCC" points="184.7,0 190.3,5.6 195.9,0 	"/>
	
		<rect x="200.9" y="10.6" transform="matrix(0.7071 0.7071 -0.7071 0.7071 70.3038 -140.5886)" fill="#CCCCCC" width="7.9" height="7.9"/>
	
		<rect x="215.5" y="25.2" transform="matrix(0.7071 0.7071 -0.7071 0.7071 84.8737 -146.6236)" fill="#CCCCCC" width="7.9" height="7.9"/>
	
		<rect x="230.1" y="39.8" transform="matrix(0.7071 0.7071 -0.7071 0.7071 99.4431 -152.6585)" fill="#CCCCCC" width="7.9" height="7.9"/>
	
		<rect x="244.6" y="54.3" transform="matrix(0.7071 0.7071 -0.7071 0.7071 114.012 -158.6931)" fill="#CCCCCC" width="7.9" height="7.9"/>
	
		<rect x="259.2" y="68.9" transform="matrix(0.7071 0.7071 -0.7071 0.7071 128.5815 -164.728)" fill="#CCCCCC" width="7.9" height="7.9"/>
	
		<rect x="273.8" y="83.5" transform="matrix(0.7071 0.7071 -0.7071 0.7071 143.1513 -170.763)" fill="#CCCCCC" width="7.9" height="7.9"/>
	
		<rect x="288.3" y="98.1" transform="matrix(0.7071 0.7071 -0.7071 0.7071 157.7208 -176.7979)" fill="#CCCCCC" width="7.9" height="7.9"/>
	
		<rect x="302.9" y="112.6" transform="matrix(0.7071 0.7071 -0.7071 0.7071 172.2897 -182.8325)" fill="#CCCCCC" width="7.9" height="7.9"/>
	
		<rect x="317.5" y="127.2" transform="matrix(0.7071 0.7071 -0.7071 0.7071 186.8594 -188.8675)" fill="#CCCCCC" width="7.9" height="7.9"/>
	
		<rect x="332" y="141.8" transform="matrix(0.7071 0.7071 -0.7071 0.7071 201.429 -194.9024)" fill="#CCCCCC" width="7.9" height="7.9"/>
	<polygon fill="#CCCCCC" points="350.6,154.7 346,159.2 355.1,159.2 	"/>
	
		<rect x="176.6" y="17.9" transform="matrix(0.7071 0.7071 -0.7071 0.7071 69.0539 -123.0016)" fill="#CCCCCC" width="12.7" height="7.9"/>
	
		<rect x="249.5" y="90.8" transform="matrix(0.7071 0.7071 -0.7071 0.7071 141.9013 -153.176)" fill="#CCCCCC" width="12.7" height="7.9"/>
	<polygon fill="#CCCCCC" points="175.7,9 166.7,0 166.7,0 161.1,5.6 170.2,14.6 	"/>
	
		<rect x="191.2" y="32.5" transform="matrix(0.7071 0.7071 -0.7071 0.7071 83.6236 -129.0366)" fill="#CCCCCC" width="12.7" height="7.9"/>
	
		<rect x="278.6" y="119.9" transform="matrix(0.7071 0.7071 -0.7071 0.7071 171.0401 -165.2457)" fill="#CCCCCC" width="12.7" height="7.9"/>
	
		<rect x="234.9" y="76.2" transform="matrix(0.7071 0.7071 -0.7071 0.7071 127.3316 -147.141)" fill="#CCCCCC" width="12.7" height="7.9"/>
	
		<rect x="205.8" y="47.1" transform="matrix(0.7071 0.7071 -0.7071 0.7071 98.1933 -135.0715)" fill="#CCCCCC" width="12.7" height="7.9"/>
	
		<rect x="264.1" y="105.3" transform="matrix(0.7071 0.7071 -0.7071 0.7071 156.4709 -159.2109)" fill="#CCCCCC" width="12.7" height="7.9"/>
	<polygon fill="#CCCCCC" points="316.9,159.2 321.4,154.7 312.4,145.7 306.8,151.3 314.8,159.2 	"/>
	
		<rect x="293.2" y="134.5" transform="matrix(0.7071 0.7071 -0.7071 0.7071 185.6094 -171.2805)" fill="#CCCCCC" width="12.7" height="7.9"/>
	
		<rect x="220.3" y="61.6" transform="matrix(0.7071 0.7071 -0.7071 0.7071 112.7625 -141.1063)" fill="#CCCCCC" width="12.7" height="7.9"/>
	<polygon fill="#CCCCCC" points="155.6,0 161.1,5.6 166.7,0 	"/>
	
		<rect x="171.8" y="10.6" transform="matrix(0.7071 0.7071 -0.7071 0.7071 61.769 -119.9841)" fill="#CCCCCC" width="7.9" height="7.9"/>
	
		<rect x="186.4" y="25.2" transform="matrix(0.7071 0.7071 -0.7071 0.7071 76.3387 -126.019)" fill="#CCCCCC" width="7.9" height="7.9"/>
	
		<rect x="200.9" y="39.8" transform="matrix(0.7071 0.7071 -0.7071 0.7071 90.9086 -132.0541)" fill="#CCCCCC" width="7.9" height="7.9"/>
	
		<rect x="215.5" y="54.3" transform="matrix(0.7071 0.7071 -0.7071 0.7071 105.478 -138.0889)" fill="#CCCCCC" width="7.9" height="7.9"/>
	
		<rect x="230.1" y="68.9" transform="matrix(0.7071 0.7071 -0.7071 0.7071 120.0469 -144.1236)" fill="#CCCCCC" width="7.9" height="7.9"/>
	
		<rect x="244.6" y="83.5" transform="matrix(0.7071 0.7071 -0.7071 0.7071 134.6163 -150.1584)" fill="#CCCCCC" width="7.9" height="7.9"/>
	
		<rect x="259.2" y="98.1" transform="matrix(0.7071 0.7071 -0.7071 0.7071 149.1862 -156.1935)" fill="#CCCCCC" width="7.9" height="7.9"/>
	
		<rect x="273.8" y="112.6" transform="matrix(0.7071 0.7071 -0.7071 0.7071 163.7556 -162.2283)" fill="#CCCCCC" width="7.9" height="7.9"/>
	
		<rect x="288.3" y="127.2" transform="matrix(0.7071 0.7071 -0.7071 0.7071 178.3246 -168.263)" fill="#CCCCCC" width="7.9" height="7.9"/>
	
		<rect x="302.9" y="141.8" transform="matrix(0.7071 0.7071 -0.7071 0.7071 192.8943 -174.2979)" fill="#CCCCCC" width="7.9" height="7.9"/>
	<polygon fill="#CCCCCC" points="321.4,154.7 316.9,159.2 325.9,159.2 	"/>
	
		<rect x="147.5" y="17.9" transform="matrix(0.7071 0.7071 -0.7071 0.7071 60.519 -102.3973)" fill="#CCCCCC" width="12.7" height="7.9"/>
	
		<rect x="132.9" y="3.4" transform="matrix(0.7071 0.7071 -0.7071 0.7071 45.9497 -96.3625)" fill="#CCCCCC" width="12.7" height="7.9"/>
	
		<rect x="205.8" y="76.2" transform="matrix(0.7071 0.7071 -0.7071 0.7071 118.7973 -126.537)" fill="#CCCCCC" width="12.7" height="7.9"/>
	
		<rect x="249.5" y="119.9" transform="matrix(0.7071 0.7071 -0.7071 0.7071 162.5058 -144.6416)" fill="#CCCCCC" width="12.7" height="7.9"/>
	
		<rect x="234.9" y="105.3" transform="matrix(0.7071 0.7071 -0.7071 0.7071 147.9361 -138.6067)" fill="#CCCCCC" width="12.7" height="7.9"/>
	<polygon fill="#CCCCCC" points="287.8,159.2 292.3,154.7 283.3,145.7 277.7,151.3 285.7,159.2 	"/>
	
		<rect x="191.2" y="61.6" transform="matrix(0.7071 0.7071 -0.7071 0.7071 104.2281 -120.5022)" fill="#CCCCCC" width="12.7" height="7.9"/>
	<polygon fill="#CCCCCC" points="126.4,0 126.4,0 126.4,0 	"/>
	
		<rect x="264.1" y="134.5" transform="matrix(0.7071 0.7071 -0.7071 0.7071 177.0749 -150.6764)" fill="#CCCCCC" width="12.7" height="7.9"/>
	
		<rect x="220.3" y="90.8" transform="matrix(0.7071 0.7071 -0.7071 0.7071 133.3664 -132.5717)" fill="#CCCCCC" width="12.7" height="7.9"/>
	
		<rect x="162.1" y="32.5" transform="matrix(0.7071 0.7071 -0.7071 0.7071 75.0887 -108.4323)" fill="#CCCCCC" width="12.7" height="7.9"/>
	
		<rect x="176.6" y="47.1" transform="matrix(0.7071 0.7071 -0.7071 0.7071 89.6584 -114.4673)" fill="#CCCCCC" width="12.7" height="7.9"/>
	<polygon fill="#CCCCCC" points="137.6,0 137.6,0 126.4,0 126.4,0 132,5.6 	"/>
	
		<rect x="142.6" y="10.6" transform="matrix(0.7071 0.7071 -0.7071 0.7071 53.2342 -99.3799)" fill="#CCCCCC" width="7.9" height="7.9"/>
	
		<rect x="157.2" y="25.2" transform="matrix(0.7071 0.7071 -0.7071 0.7071 67.8038 -105.4148)" fill="#CCCCCC" width="7.9" height="7.9"/>
	
		<rect x="171.8" y="39.8" transform="matrix(0.7071 0.7071 -0.7071 0.7071 82.3735 -111.4497)" fill="#CCCCCC" width="7.9" height="7.9"/>
	
		<rect x="186.4" y="54.3" transform="matrix(0.7071 0.7071 -0.7071 0.7071 96.9434 -117.4848)" fill="#CCCCCC" width="7.9" height="7.9"/>
	
		<rect x="200.9" y="68.9" transform="matrix(0.7071 0.7071 -0.7071 0.7071 111.5128 -123.5196)" fill="#CCCCCC" width="7.9" height="7.9"/>
	
		<rect x="215.5" y="83.5" transform="matrix(0.7071 0.7071 -0.7071 0.7071 126.0817 -129.5543)" fill="#CCCCCC" width="7.9" height="7.9"/>
	
		<rect x="230.1" y="98.1" transform="matrix(0.7071 0.7071 -0.7071 0.7071 140.6512 -135.5892)" fill="#CCCCCC" width="7.9" height="7.9"/>
	
		<rect x="244.6" y="112.6" transform="matrix(0.7071 0.7071 -0.7071 0.7071 155.221 -141.6242)" fill="#CCCCCC" width="7.9" height="7.9"/>
	
		<rect x="259.2" y="127.2" transform="matrix(0.7071 0.7071 -0.7071 0.7071 169.7905 -147.659)" fill="#CCCCCC" width="7.9" height="7.9"/>
	
		<rect x="273.8" y="141.8" transform="matrix(0.7071 0.7071 -0.7071 0.7071 184.3594 -153.6937)" fill="#CCCCCC" width="7.9" height="7.9"/>
	<polygon fill="#CCCCCC" points="292.3,154.7 287.8,159.2 296.8,159.2 	"/>
	
		<rect x="234.9" y="134.5" transform="matrix(0.7071 0.7071 -0.7071 0.7071 168.5405 -130.0723)" fill="#CCCCCC" width="12.7" height="7.9"/>
	
		<rect x="220.3" y="119.9" transform="matrix(0.7071 0.7071 -0.7071 0.7071 153.9709 -124.0374)" fill="#CCCCCC" width="12.7" height="7.9"/>
	
		<rect x="191.2" y="90.8" transform="matrix(0.7071 0.7071 -0.7071 0.7071 124.8321 -111.9677)" fill="#CCCCCC" width="12.7" height="7.9"/>
	
		<rect x="162.1" y="61.6" transform="matrix(0.7071 0.7071 -0.7071 0.7071 95.6932 -99.898)" fill="#CCCCCC" width="12.7" height="7.9"/>
	
		<rect x="118.4" y="17.9" transform="matrix(0.7071 0.7071 -0.7071 0.7071 51.9845 -81.7932)" fill="#CCCCCC" width="12.7" height="7.9"/>
	
		<rect x="132.9" y="32.5" transform="matrix(0.7071 0.7071 -0.7071 0.7071 66.5538 -87.828)" fill="#CCCCCC" width="12.7" height="7.9"/>
	<polygon fill="#CCCCCC" points="258.6,159.2 263.1,154.7 254.1,145.7 248.6,151.3 256.5,159.2 	"/>
	
		<rect x="176.6" y="76.2" transform="matrix(0.7071 0.7071 -0.7071 0.7071 110.2629 -105.9329)" fill="#CCCCCC" width="12.7" height="7.9"/>
	
		<rect x="103.8" y="3.4" transform="matrix(0.7071 0.7071 -0.7071 0.7071 37.4153 -75.7585)" fill="#CCCCCC" width="12.7" height="7.9"/>
	
		<rect x="205.8" y="105.3" transform="matrix(0.7071 0.7071 -0.7071 0.7071 139.4012 -118.0024)" fill="#CCCCCC" width="12.7" height="7.9"/>
	
		<rect x="147.5" y="47.1" transform="matrix(0.7071 0.7071 -0.7071 0.7071 81.1235 -93.863)" fill="#CCCCCC" width="12.7" height="7.9"/>
	<polygon fill="#CCCCCC" points="97.3,0 97.3,0 97.3,0 	"/>
	<polygon fill="#CCCCCC" points="102.9,5.6 108.4,0 108.4,0 97.3,0 97.3,0 	"/>
	
		<rect x="113.5" y="10.6" transform="matrix(0.7071 0.7071 -0.7071 0.7071 44.7 -78.7759)" fill="#CCCCCC" width="7.9" height="7.9"/>
	
		<rect x="128.1" y="25.2" transform="matrix(0.7071 0.7071 -0.7071 0.7071 59.269 -84.8106)" fill="#CCCCCC" width="7.9" height="7.9"/>
	
		<rect x="142.6" y="39.8" transform="matrix(0.7071 0.7071 -0.7071 0.7071 73.8386 -90.8455)" fill="#CCCCCC" width="7.9" height="7.9"/>
	
		<rect x="157.2" y="54.3" transform="matrix(0.7071 0.7071 -0.7071 0.7071 88.4083 -96.8805)" fill="#CCCCCC" width="7.9" height="7.9"/>
	
		<rect x="171.8" y="68.9" transform="matrix(0.7071 0.7071 -0.7071 0.7071 102.9782 -102.9155)" fill="#CCCCCC" width="7.9" height="7.9"/>
	
		<rect x="186.4" y="83.5" transform="matrix(0.7071 0.7071 -0.7071 0.7071 117.5476 -108.9504)" fill="#CCCCCC" width="7.9" height="7.9"/>
	
		<rect x="200.9" y="98.1" transform="matrix(0.7071 0.7071 -0.7071 0.7071 132.1165 -114.985)" fill="#CCCCCC" width="7.9" height="7.9"/>
	
		<rect x="215.5" y="112.6" transform="matrix(0.7071 0.7071 -0.7071 0.7071 146.686 -121.0198)" fill="#CCCCCC" width="7.9" height="7.9"/>
	
		<rect x="230.1" y="127.2" transform="matrix(0.7071 0.7071 -0.7071 0.7071 161.2558 -127.0549)" fill="#CCCCCC" width="7.9" height="7.9"/>
	
		<rect x="244.6" y="141.8" transform="matrix(0.7071 0.7071 -0.7071 0.7071 175.8253 -133.0897)" fill="#CCCCCC" width="7.9" height="7.9"/>
	<polygon fill="#CCCCCC" points="263.1,154.7 258.6,159.2 267.6,159.2 	"/>
	
		<rect x="89.2" y="17.9" transform="matrix(0.7071 0.7071 -0.7071 0.7071 43.4502 -61.1889)" fill="#CCCCCC" width="12.7" height="7.9"/>
	
		<rect x="176.6" y="105.3" transform="matrix(0.7071 0.7071 -0.7071 0.7071 130.867 -97.3981)" fill="#CCCCCC" width="12.7" height="7.9"/>
	
		<rect x="132.9" y="61.6" transform="matrix(0.7071 0.7071 -0.7071 0.7071 87.1584 -79.2934)" fill="#CCCCCC" width="12.7" height="7.9"/>
	
		<rect x="191.2" y="119.9" transform="matrix(0.7071 0.7071 -0.7071 0.7071 145.4361 -103.4329)" fill="#CCCCCC" width="12.7" height="7.9"/>
	
		<rect x="103.8" y="32.5" transform="matrix(0.7071 0.7071 -0.7071 0.7071 58.0194 -67.2237)" fill="#CCCCCC" width="12.7" height="7.9"/>
	<polygon fill="#CCCCCC" points="88.3,9 79.3,0 79.3,0 73.7,5.6 82.7,14.6 	"/>
	<polygon fill="#CCCCCC" points="229.5,159.2 234,154.7 225,145.7 219.4,151.3 227.4,159.2 	"/>
	
		<rect x="162.1" y="90.8" transform="matrix(0.7071 0.7071 -0.7071 0.7071 116.2978 -91.3634)" fill="#CCCCCC" width="12.7" height="7.9"/>
	
		<rect x="147.5" y="76.2" transform="matrix(0.7071 0.7071 -0.7071 0.7071 101.7281 -85.3284)" fill="#CCCCCC" width="12.7" height="7.9"/>
	
		<rect x="118.4" y="47.1" transform="matrix(0.7071 0.7071 -0.7071 0.7071 72.5887 -73.2585)" fill="#CCCCCC" width="12.7" height="7.9"/>
	
		<rect x="205.8" y="134.5" transform="matrix(0.7071 0.7071 -0.7071 0.7071 160.0058 -109.4678)" fill="#CCCCCC" width="12.7" height="7.9"/>
	<polygon fill="#CCCCCC" points="68.2,0 73.7,5.6 79.3,0 	"/>
	
		<rect x="84.4" y="10.6" transform="matrix(0.7071 0.7071 -0.7071 0.7071 36.1655 -58.1715)" fill="#CCCCCC" width="7.9" height="7.9"/>
	
		<rect x="98.9" y="25.2" transform="matrix(0.7071 0.7071 -0.7071 0.7071 50.7349 -64.2064)" fill="#CCCCCC" width="7.9" height="7.9"/>
	
		<rect x="113.5" y="39.8" transform="matrix(0.7071 0.7071 -0.7071 0.7071 65.3039 -70.241)" fill="#CCCCCC" width="7.9" height="7.9"/>
	
		<rect x="128.1" y="54.3" transform="matrix(0.7071 0.7071 -0.7071 0.7071 79.8735 -76.276)" fill="#CCCCCC" width="7.9" height="7.9"/>
	
		<rect x="142.6" y="68.9" transform="matrix(0.7071 0.7071 -0.7071 0.7071 94.4432 -82.3109)" fill="#CCCCCC" width="7.9" height="7.9"/>
	
		<rect x="157.2" y="83.5" transform="matrix(0.7071 0.7071 -0.7071 0.7071 109.0131 -88.346)" fill="#CCCCCC" width="7.9" height="7.9"/>
	
		<rect x="171.8" y="98.1" transform="matrix(0.7071 0.7071 -0.7071 0.7071 123.5825 -94.3808)" fill="#CCCCCC" width="7.9" height="7.9"/>
	
		<rect x="186.4" y="112.6" transform="matrix(0.7071 0.7071 -0.7071 0.7071 138.1514 -100.4155)" fill="#CCCCCC" width="7.9" height="7.9"/>
	
		<rect x="200.9" y="127.2" transform="matrix(0.7071 0.7071 -0.7071 0.7071 152.7209 -106.4503)" fill="#CCCCCC" width="7.9" height="7.9"/>
	
		<rect x="215.5" y="141.8" transform="matrix(0.7071 0.7071 -0.7071 0.7071 167.2907 -112.4854)" fill="#CCCCCC" width="7.9" height="7.9"/>
	<polygon fill="#CCCCCC" points="234,154.7 229.5,159.2 238.5,159.2 	"/>
	
		<rect x="74.6" y="32.5" transform="matrix(0.7071 0.7071 -0.7071 0.7071 49.4851 -46.6194)" fill="#CCCCCC" width="12.7" height="7.9"/>
	
		<rect x="89.2" y="47.1" transform="matrix(0.7071 0.7071 -0.7071 0.7071 64.0543 -52.6542)" fill="#CCCCCC" width="12.7" height="7.9"/>
	
		<rect x="103.8" y="61.6" transform="matrix(0.7071 0.7071 -0.7071 0.7071 78.6236 -58.689)" fill="#CCCCCC" width="12.7" height="7.9"/>
	<polygon fill="#CCCCCC" points="200.4,159.2 204.9,154.7 195.9,145.7 190.3,151.3 198.2,159.2 	"/>
	
		<rect x="132.9" y="90.8" transform="matrix(0.7071 0.7071 -0.7071 0.7071 107.763 -70.7589)" fill="#CCCCCC" width="12.7" height="7.9"/>
	
		<rect x="147.5" y="105.3" transform="matrix(0.7071 0.7071 -0.7071 0.7071 122.3327 -76.7938)" fill="#CCCCCC" width="12.7" height="7.9"/>
	
		<rect x="118.4" y="76.2" transform="matrix(0.7071 0.7071 -0.7071 0.7071 93.1933 -64.7239)" fill="#CCCCCC" width="12.7" height="7.9"/>
	
		<rect x="60.1" y="17.9" transform="matrix(0.7071 0.7071 -0.7071 0.7071 34.9155 -40.5845)" fill="#CCCCCC" width="12.7" height="7.9"/>
	
		<rect x="162.1" y="119.9" transform="matrix(0.7071 0.7071 -0.7071 0.7071 136.9019 -82.8286)" fill="#CCCCCC" width="12.7" height="7.9"/>
	<polygon fill="#CCCCCC" points="59.2,9 50.2,0 50.2,0 44.6,5.6 53.6,14.6 	"/>
	
		<rect x="176.6" y="134.5" transform="matrix(0.7071 0.7071 -0.7071 0.7071 151.471 -88.8634)" fill="#CCCCCC" width="12.7" height="7.9"/>
	<polygon fill="#CCCCCC" points="39,0 44.6,5.6 50.2,0 	"/>
	
		<rect x="55.2" y="10.6" transform="matrix(0.7071 0.7071 -0.7071 0.7071 27.6305 -37.5669)" fill="#CCCCCC" width="7.9" height="7.9"/>
	
		<rect x="69.8" y="25.2" transform="matrix(0.7071 0.7071 -0.7071 0.7071 42.2004 -43.602)" fill="#CCCCCC" width="7.9" height="7.9"/>
	
		<rect x="84.4" y="39.8" transform="matrix(0.7071 0.7071 -0.7071 0.7071 56.7698 -49.6368)" fill="#CCCCCC" width="7.9" height="7.9"/>
	
		<rect x="98.9" y="54.3" transform="matrix(0.7071 0.7071 -0.7071 0.7071 71.3388 -55.6715)" fill="#CCCCCC" width="7.9" height="7.9"/>
	
		<rect x="113.5" y="68.9" transform="matrix(0.7071 0.7071 -0.7071 0.7071 85.9084 -61.7064)" fill="#CCCCCC" width="7.9" height="7.9"/>
	
		<rect x="128.1" y="83.5" transform="matrix(0.7071 0.7071 -0.7071 0.7071 100.4781 -67.7414)" fill="#CCCCCC" width="7.9" height="7.9"/>
	
		<rect x="142.6" y="98.1" transform="matrix(0.7071 0.7071 -0.7071 0.7071 115.048 -73.7764)" fill="#CCCCCC" width="7.9" height="7.9"/>
	
		<rect x="157.2" y="112.6" transform="matrix(0.7071 0.7071 -0.7071 0.7071 129.6174 -79.8113)" fill="#CCCCCC" width="7.9" height="7.9"/>
	
		<rect x="171.8" y="127.2" transform="matrix(0.7071 0.7071 -0.7071 0.7071 144.1863 -85.8459)" fill="#CCCCCC" width="7.9" height="7.9"/>
	
		<rect x="186.4" y="141.8" transform="matrix(0.7071 0.7071 -0.7071 0.7071 158.7558 -91.8808)" fill="#CCCCCC" width="7.9" height="7.9"/>
	<polygon fill="#CCCCCC" points="204.9,154.7 200.4,159.2 209.4,159.2 	"/>
	<polygon fill="#CCCCCC" points="171.2,159.2 175.7,154.7 166.7,145.7 161.1,151.3 169.1,159.2 	"/>
	
		<rect x="30.9" y="17.9" transform="matrix(0.7071 0.7071 -0.7071 0.7071 26.3808 -19.9799)" fill="#CCCCCC" width="12.7" height="7.9"/>
	
		<rect x="89.2" y="76.2" transform="matrix(0.7071 0.7071 -0.7071 0.7071 84.6586 -44.1193)" fill="#CCCCCC" width="12.7" height="7.9"/>
	<polygon fill="#CCCCCC" points="30,9 21,0 21,0 15.5,5.6 24.5,14.6 	"/>
	
		<rect x="45.5" y="32.5" transform="matrix(0.7071 0.7071 -0.7071 0.7071 40.9504 -26.0148)" fill="#CCCCCC" width="12.7" height="7.9"/>
	
		<rect x="103.8" y="90.8" transform="matrix(0.7071 0.7071 -0.7071 0.7071 99.2282 -50.1542)" fill="#CCCCCC" width="12.7" height="7.9"/>
	
		<rect x="132.9" y="119.9" transform="matrix(0.7071 0.7071 -0.7071 0.7071 128.3676 -62.2242)" fill="#CCCCCC" width="12.7" height="7.9"/>
	
		<rect x="118.4" y="105.3" transform="matrix(0.7071 0.7071 -0.7071 0.7071 113.798 -56.1892)" fill="#CCCCCC" width="12.7" height="7.9"/>
	
		<rect x="60.1" y="47.1" transform="matrix(0.7071 0.7071 -0.7071 0.7071 55.5201 -32.0497)" fill="#CCCCCC" width="12.7" height="7.9"/>
	
		<rect x="147.5" y="134.5" transform="matrix(0.7071 0.7071 -0.7071 0.7071 142.9368 -68.259)" fill="#CCCCCC" width="12.7" height="7.9"/>
	
		<rect x="74.6" y="61.6" transform="matrix(0.7071 0.7071 -0.7071 0.7071 70.0892 -38.0845)" fill="#CCCCCC" width="12.7" height="7.9"/>
	<polygon fill="#CCCCCC" points="9.9,0 15.5,5.6 21,0 	"/>
	
		<rect x="26.1" y="10.6" transform="matrix(0.7071 0.7071 -0.7071 0.7071 19.0961 -16.9624)" fill="#CCCCCC" width="7.9" height="7.9"/>
	
		<rect x="40.7" y="25.2" transform="matrix(0.7071 0.7071 -0.7071 0.7071 33.6655 -22.9973)" fill="#CCCCCC" width="7.9" height="7.9"/>
	
		<rect x="55.2" y="39.8" transform="matrix(0.7071 0.7071 -0.7071 0.7071 48.2354 -29.0323)" fill="#CCCCCC" width="7.9" height="7.9"/>
	
		<rect x="69.8" y="54.3" transform="matrix(0.7071 0.7071 -0.7071 0.7071 62.8048 -35.0672)" fill="#CCCCCC" width="7.9" height="7.9"/>
	
		<rect x="84.4" y="68.9" transform="matrix(0.7071 0.7071 -0.7071 0.7071 77.3737 -41.1018)" fill="#CCCCCC" width="7.9" height="7.9"/>
	
		<rect x="98.9" y="83.5" transform="matrix(0.7071 0.7071 -0.7071 0.7071 91.9434 -47.1368)" fill="#CCCCCC" width="7.9" height="7.9"/>
	
		<rect x="113.5" y="98.1" transform="matrix(0.7071 0.7071 -0.7071 0.7071 106.513 -53.1717)" fill="#CCCCCC" width="7.9" height="7.9"/>
	
		<rect x="128.1" y="112.6" transform="matrix(0.7071 0.7071 -0.7071 0.7071 121.0829 -59.2068)" fill="#CCCCCC" width="7.9" height="7.9"/>
	
		<rect x="142.6" y="127.2" transform="matrix(0.7071 0.7071 -0.7071 0.7071 135.6523 -65.2416)" fill="#CCCCCC" width="7.9" height="7.9"/>
	
		<rect x="157.2" y="141.8" transform="matrix(0.7071 0.7071 -0.7071 0.7071 150.2213 -71.2763)" fill="#CCCCCC" width="7.9" height="7.9"/>
	<polygon fill="#CCCCCC" points="175.7,154.7 171.2,159.2 180.2,159.2 	"/>
	
		<rect x="30.9" y="47.1" transform="matrix(0.7071 0.7071 -0.7071 0.7071 46.9852 -11.4456)" fill="#CCCCCC" width="12.7" height="7.9"/>
	<polygon fill="#CCCCCC" points="142.1,159.2 146.6,154.7 137.6,145.7 132,151.3 140,159.2 	"/>
	
		<rect x="89.2" y="105.3" transform="matrix(0.7071 0.7071 -0.7071 0.7071 105.2629 -35.5851)" fill="#CCCCCC" width="12.7" height="7.9"/>
	
		<rect x="74.6" y="90.8" transform="matrix(0.7071 0.7071 -0.7071 0.7071 90.6933 -29.5501)" fill="#CCCCCC" width="12.7" height="7.9"/>
	<polygon fill="#CCCCCC" points="9.9,29.1 15.5,23.6 6.4,14.6 1.6,19.4 1.6,20.8 	"/>
	
		<rect x="16.4" y="32.5" transform="matrix(0.7071 0.7071 -0.7071 0.7071 32.4155 -5.4107)" fill="#CCCCCC" width="12.7" height="7.9"/>
	
		<rect x="118.4" y="134.5" transform="matrix(0.7071 0.7071 -0.7071 0.7071 134.4024 -47.655)" fill="#CCCCCC" width="12.7" height="7.9"/>
	
		<rect x="103.8" y="119.9" transform="matrix(0.7071 0.7071 -0.7071 0.7071 119.8327 -41.6201)" fill="#CCCCCC" width="12.7" height="7.9"/>
	
		<rect x="45.5" y="61.6" transform="matrix(0.7071 0.7071 -0.7071 0.7071 61.5548 -17.4806)" fill="#CCCCCC" width="12.7" height="7.9"/>
	
		<rect x="60.1" y="76.2" transform="matrix(0.7071 0.7071 -0.7071 0.7071 76.124 -23.5153)" fill="#CCCCCC" width="12.7" height="7.9"/>
	<polygon fill="#CCCCCC" points="1.6,9.7 1.6,19.4 6.4,14.6 	"/>
	
		<rect x="11.5" y="25.2" transform="matrix(0.7071 0.7071 -0.7071 0.7071 25.1308 -2.3933)" fill="#CCCCCC" width="7.9" height="7.9"/>
	
		<rect x="26.1" y="39.8" transform="matrix(0.7071 0.7071 -0.7071 0.7071 39.7002 -8.4281)" fill="#CCCCCC" width="7.9" height="7.9"/>
	
		<rect x="40.7" y="54.3" transform="matrix(0.7071 0.7071 -0.7071 0.7071 54.2701 -14.4632)" fill="#CCCCCC" width="7.9" height="7.9"/>
	
		<rect x="55.2" y="68.9" transform="matrix(0.7071 0.7071 -0.7071 0.7071 68.8395 -20.498)" fill="#CCCCCC" width="7.9" height="7.9"/>
	
		<rect x="69.8" y="83.5" transform="matrix(0.7071 0.7071 -0.7071 0.7071 83.4085 -26.5327)" fill="#CCCCCC" width="7.9" height="7.9"/>
	
		<rect x="84.4" y="98.1" transform="matrix(0.7071 0.7071 -0.7071 0.7071 97.9781 -32.5676)" fill="#CCCCCC" width="7.9" height="7.9"/>
	
		<rect x="98.9" y="112.6" transform="matrix(0.7071 0.7071 -0.7071 0.7071 112.5478 -38.6026)" fill="#CCCCCC" width="7.9" height="7.9"/>
	
		<rect x="113.5" y="127.2" transform="matrix(0.7071 0.7071 -0.7071 0.7071 127.1177 -44.6376)" fill="#CCCCCC" width="7.9" height="7.9"/>
	
		<rect x="128.1" y="141.8" transform="matrix(0.7071 0.7071 -0.7071 0.7071 141.6871 -50.6724)" fill="#CCCCCC" width="7.9" height="7.9"/>
	<polygon fill="#CCCCCC" points="146.6,154.7 142.1,159.2 151.1,159.2 	"/>
	
		<rect x="16.4" y="61.6" transform="matrix(0.7071 0.7071 -0.7071 0.7071 53.0201 3.124)" fill="#CCCCCC" width="12.7" height="7.9"/>
	
		<rect x="60.1" y="105.3" transform="matrix(0.7071 0.7071 -0.7071 0.7071 96.7291 -14.9803)" fill="#CCCCCC" width="12.7" height="7.9"/>
	
		<rect x="74.6" y="119.9" transform="matrix(0.7071 0.7071 -0.7071 0.7071 111.297 -21.0156)" fill="#CCCCCC" width="12.7" height="7.9"/>
	<polygon fill="#CCCCCC" points="9.9,58.3 15.5,52.7 6.4,43.7 1.6,48.6 1.6,50 	"/>
	
		<rect x="89.2" y="134.5" transform="matrix(0.7071 0.7071 -0.7071 0.7071 125.8677 -27.0504)" fill="#CCCCCC" width="12.7" height="7.9"/>
	<polygon fill="#CCCCCC" points="112.9,159.2 117.4,154.7 108.4,145.7 102.9,151.3 110.8,159.2 	"/>
	
		<rect x="30.9" y="76.2" transform="matrix(0.7071 0.7071 -0.7071 0.7071 67.5898 -2.9109)" fill="#CCCCCC" width="12.7" height="7.9"/>
	
		<rect x="45.5" y="90.8" transform="matrix(0.7071 0.7071 -0.7071 0.7071 82.159 -8.9457)" fill="#CCCCCC" width="12.7" height="7.9"/>
	<polygon fill="#CCCCCC" points="1.6,38.8 1.6,48.6 6.4,43.7 	"/>
	
		<rect x="11.5" y="54.3" transform="matrix(0.7071 0.7071 -0.7071 0.7071 45.7352 6.1415)" fill="#CCCCCC" width="7.9" height="7.9"/>
	
		<rect x="26.1" y="68.9" transform="matrix(0.7071 0.7071 -0.7071 0.7071 60.3051 0.1065)" fill="#CCCCCC" width="7.9" height="7.9"/>
	
		<rect x="40.7" y="83.5" transform="matrix(0.7071 0.7071 -0.7071 0.7071 74.8745 -5.9284)" fill="#CCCCCC" width="7.9" height="7.9"/>
	
		<rect x="55.2" y="98.1" transform="matrix(0.7071 0.7071 -0.7071 0.7071 89.4434 -11.963)" fill="#CCCCCC" width="7.9" height="7.9"/>
	
		<rect x="69.8" y="112.6" transform="matrix(0.7071 0.7071 -0.7071 0.7071 104.0132 -17.9979)" fill="#CCCCCC" width="7.9" height="7.9"/>
	
		<rect x="84.4" y="127.2" transform="matrix(0.7071 0.7071 -0.7071 0.7071 118.5827 -24.0329)" fill="#CCCCCC" width="7.9" height="7.9"/>
	
		<rect x="98.9" y="141.8" transform="matrix(0.7071 0.7071 -0.7071 0.7071 133.1526 -30.0679)" fill="#CCCCCC" width="7.9" height="7.9"/>
	<polygon fill="#CCCCCC" points="117.4,154.7 112.9,159.2 121.9,159.2 	"/>
	
		<rect x="16.4" y="90.8" transform="matrix(0.7071 0.7071 -0.7071 0.7071 73.6247 11.6586)" fill="#CCCCCC" width="12.7" height="7.9"/>
	
		<rect x="30.9" y="105.3" transform="matrix(0.7071 0.7071 -0.7071 0.7071 88.1939 5.6239)" fill="#CCCCCC" width="12.7" height="7.9"/>
	
		<rect x="60.1" y="134.5" transform="matrix(0.7071 0.7071 -0.7071 0.7071 117.3328 -6.4459)" fill="#CCCCCC" width="12.7" height="7.9"/>
	<polygon fill="#CCCCCC" points="9.9,87.4 15.5,81.9 6.4,72.8 1.6,77.7 1.6,79.1 	"/>
	
		<rect x="45.5" y="119.9" transform="matrix(0.7071 0.7071 -0.7071 0.7071 102.7632 -0.4109)" fill="#CCCCCC" width="12.7" height="7.9"/>
	<polygon fill="#CCCCCC" points="83.8,159.2 88.3,154.7 79.3,145.7 73.7,151.3 81.7,159.2 	"/>
	<polygon fill="#CCCCCC" points="1.6,68 1.6,77.7 6.4,72.8 	"/>
	<rect x="11.5" y="83.5" transform="matrix(0.7071 0.7071 -0.7071 0.7071 66.34 14.676)" fill="#CCCCCC" width="7.9" height="7.9"/>
	
		<rect x="26.1" y="98.1" transform="matrix(0.7071 0.7071 -0.7071 0.7071 80.9094 8.6412)" fill="#CCCCCC" width="7.9" height="7.9"/>
	
		<rect x="40.7" y="112.6" transform="matrix(0.7071 0.7071 -0.7071 0.7071 95.4783 2.6065)" fill="#CCCCCC" width="7.9" height="7.9"/>
	
		<rect x="55.2" y="127.2" transform="matrix(0.7071 0.7071 -0.7071 0.7071 110.048 -3.4284)" fill="#CCCCCC" width="7.9" height="7.9"/>
	
		<rect x="69.8" y="141.8" transform="matrix(0.7071 0.7071 -0.7071 0.7071 124.6176 -9.4634)" fill="#CCCCCC" width="7.9" height="7.9"/>
	<polygon fill="#CCCCCC" points="88.3,154.7 83.8,159.2 92.8,159.2 	"/>
	<polygon fill="#CCCCCC" points="9.9,116.6 15.5,111 6.4,102 1.6,106.9 1.6,108.2 	"/>
	
		<rect x="30.9" y="134.5" transform="matrix(0.7071 0.7071 -0.7071 0.7071 108.7972 14.1581)" fill="#CCCCCC" width="12.7" height="7.9"/>
	<polygon fill="#CCCCCC" points="54.7,159.2 59.2,154.7 50.2,145.7 44.6,151.3 52.5,159.2 	"/>
	
		<rect x="16.4" y="119.9" transform="matrix(0.7071 0.7071 -0.7071 0.7071 94.2288 20.1934)" fill="#CCCCCC" width="12.7" height="7.9"/>
	<polygon fill="#CCCCCC" points="1.6,97.1 1.6,106.9 6.4,102 	"/>
	
		<rect x="11.5" y="112.6" transform="matrix(0.7071 0.7071 -0.7071 0.7071 86.9443 23.2107)" fill="#CCCCCC" width="7.9" height="7.9"/>
	
		<rect x="26.1" y="127.2" transform="matrix(0.7071 0.7071 -0.7071 0.7071 101.5132 17.1761)" fill="#CCCCCC" width="7.9" height="7.9"/>
	
		<rect x="40.7" y="141.8" transform="matrix(0.7071 0.7071 -0.7071 0.7071 116.0829 11.141)" fill="#CCCCCC" width="7.9" height="7.9"/>
	<polygon fill="#CCCCCC" points="59.2,154.7 54.7,159.2 63.7,159.2 	"/>
	<polygon fill="#CCCCCC" points="25.5,159.2 30,154.7 21,145.7 15.5,151.3 23.4,159.2 	"/>
	<polygon fill="#CCCCCC" points="9.9,145.7 15.5,140.1 6.4,131.1 1.6,136 1.6,137.4 	"/>
	<polygon fill="#CCCCCC" points="1.6,126.3 1.6,136 6.4,131.1 	"/>
	
		<rect x="11.5" y="141.8" transform="matrix(0.7071 0.7071 -0.7071 0.7071 107.548 31.7454)" fill="#CCCCCC" width="7.9" height="7.9"/>
	<polygon fill="#CCCCCC" points="30,154.7 25.5,159.2 34.5,159.2 	"/>
	<polygon fill="#CCCCCC" points="1.6,159.2 5.4,159.2 1.6,155.4 	"/>
</g>
<g>
	<path fill="#E3F4FB" stroke="#5DC1E5" stroke-width="2.0885" stroke-miterlimit="10" d="M88.9,74.8H50.1c-3.7,0-6.7-3-6.7-6.7V29.3
		c0-3.7,3-6.7,6.7-6.7h38.8c3.7,0,6.7,3,6.7,6.7v38.8C95.7,71.8,92.6,74.8,88.9,74.8z"/>
	<g>
		<path fill="#5DC1E5" d="M56.6,35.2h7.3l3.6,12.9c0.9,3.2,1.6,6.9,1.6,6.9h0.1c0,0,0.7-3.7,1.6-6.9l3.6-12.9h7.5v25.7h-4.9V46.2
			c0-2.1,0.2-5.3,0.2-5.3h-0.1c0,0-0.6,3-1.1,4.9l-4.4,15.2h-5l-4.3-15.2c-0.5-1.9-1.1-4.9-1.1-4.9h-0.1c0,0,0.2,3.2,0.2,5.3v14.8
			h-4.8V35.2z"/>
	</g>
</g>
<g>
	<path fill="#E3F4FB" stroke="#5DC1E5" stroke-width="2.0885" stroke-miterlimit="10" d="M152.2,74.8h-38.8c-3.7,0-6.7-3-6.7-6.7
		V29.3c0-3.7,3-6.7,6.7-6.7h38.8c3.7,0,6.7,3,6.7,6.7v38.8C158.9,71.8,155.9,74.8,152.2,74.8z"/>
	<g>
		<path fill="#5DC1E5" d="M119.9,35.2h7.3l3.6,12.9c0.9,3.2,1.6,6.9,1.6,6.9h0.1c0,0,0.7-3.7,1.6-6.9l3.6-12.9h7.5v25.7h-4.9V46.2
			c0-2.1,0.2-5.3,0.2-5.3h-0.1c0,0-0.6,3-1.1,4.9l-4.4,15.2h-5l-4.3-15.2c-0.5-1.9-1.1-4.9-1.1-4.9h-0.1c0,0,0.2,3.2,0.2,5.3v14.8
			h-4.8V35.2z"/>
	</g>
</g>
<g>
	<path fill="#E3F4FB" stroke="#5DC1E5" stroke-width="2.0885" stroke-miterlimit="10" d="M215.4,74.8h-38.8c-3.7,0-6.7-3-6.7-6.7
		V29.3c0-3.7,3-6.7,6.7-6.7h38.8c3.7,0,6.7,3,6.7,6.7v38.8C222.2,71.8,219.2,74.8,215.4,74.8z"/>
	<g>
		<path fill="#5DC1E5" d="M183.1,35.2h7.3l3.6,12.9c0.9,3.2,1.6,6.9,1.6,6.9h0.1c0,0,0.7-3.7,1.6-6.9l3.6-12.9h7.5v25.7h-4.9V46.2
			c0-2.1,0.2-5.3,0.2-5.3h-0.1c0,0-0.6,3-1.1,4.9l-4.4,15.2h-5l-4.3-15.2c-0.5-1.9-1.1-4.9-1.1-4.9h-0.1c0,0,0.2,3.2,0.2,5.3v14.8
			h-4.8V35.2z"/>
	</g>
</g>
<g>
	<path fill="#E3F4FB" stroke="#5DC1E5" stroke-width="2.0885" stroke-miterlimit="10" d="M278.7,74.8h-38.8c-3.7,0-6.7-3-6.7-6.7
		V29.3c0-3.7,3-6.7,6.7-6.7h38.8c3.7,0,6.7,3,6.7,6.7v38.8C285.5,71.8,282.4,74.8,278.7,74.8z"/>
	<g>
		<path fill="#5DC1E5" d="M246.4,35.2h7.3l3.6,12.9c0.9,3.2,1.6,6.9,1.6,6.9h0.1c0,0,0.7-3.7,1.6-6.9l3.6-12.9h7.5v25.7h-4.9V46.2
			c0-2.1,0.2-5.3,0.2-5.3H267c0,0-0.6,3-1.1,4.9l-4.4,15.2h-5l-4.3-15.2c-0.5-1.9-1.1-4.9-1.1-4.9H251c0,0,0.2,3.2,0.2,5.3v14.8
			h-4.8V35.2z"/>
	</g>
</g>
<g>
	<path fill="#E3F4FB" stroke="#5DC1E5" stroke-width="2.0885" stroke-miterlimit="10" d="M342.4,74.8h-38.8c-3.7,0-6.7-3-6.7-6.7
		V29.3c0-3.7,3-6.7,6.7-6.7h38.8c3.7,0,6.7,3,6.7,6.7v38.8C349.1,71.8,346.1,74.8,342.4,74.8z"/>
	<g>
		<path fill="#5DC1E5" d="M310,35.2h7.3l3.6,12.9c0.9,3.2,1.6,6.9,1.6,6.9h0.1c0,0,0.7-3.7,1.6-6.9l3.6-12.9h7.5v25.7h-4.9V46.2
			c0-2.1,0.2-5.3,0.2-5.3h-0.1c0,0-0.6,3-1.1,4.9l-4.4,15.2h-5l-4.3-15.2c-0.5-1.9-1.1-4.9-1.1-4.9h-0.1c0,0,0.2,3.2,0.2,5.3v14.8
			H310V35.2z"/>
	</g>
</g>
<g>
	<path fill="#E3F4FB" stroke="#5DC1E5" stroke-width="2.0885" stroke-miterlimit="10" d="M88.9,137.6H50.1c-3.7,0-6.7-3-6.7-6.7
		V92.1c0-3.7,3-6.7,6.7-6.7h38.8c3.7,0,6.7,3,6.7,6.7v38.8C95.7,134.6,92.6,137.6,88.9,137.6z"/>
	<g>
		<path fill="#5DC1E5" d="M56.6,98h7.3l3.6,12.9c0.9,3.2,1.6,6.9,1.6,6.9h0.1c0,0,0.7-3.7,1.6-6.9L74.5,98h7.5v25.7h-4.9V109
			c0-2.1,0.2-5.3,0.2-5.3h-0.1c0,0-0.6,3-1.1,4.9l-4.4,15.2h-5l-4.3-15.2c-0.5-1.9-1.1-4.9-1.1-4.9h-0.1c0,0,0.2,3.2,0.2,5.3v14.8
			h-4.8V98z"/>
	</g>
</g>
<g>
	<path fill="#E3F4FB" stroke="#5DC1E5" stroke-width="2.0885" stroke-miterlimit="10" d="M152.2,137.6h-38.8c-3.7,0-6.7-3-6.7-6.7
		V92.1c0-3.7,3-6.7,6.7-6.7h38.8c3.7,0,6.7,3,6.7,6.7v38.8C158.9,134.6,155.9,137.6,152.2,137.6z"/>
	<g>
		<path fill="#5DC1E5" d="M119.9,98h7.3l3.6,12.9c0.9,3.2,1.6,6.9,1.6,6.9h0.1c0,0,0.7-3.7,1.6-6.9l3.6-12.9h7.5v25.7h-4.9V109
			c0-2.1,0.2-5.3,0.2-5.3h-0.1c0,0-0.6,3-1.1,4.9l-4.4,15.2h-5l-4.3-15.2c-0.5-1.9-1.1-4.9-1.1-4.9h-0.1c0,0,0.2,3.2,0.2,5.3v14.8
			h-4.8V98z"/>
	</g>
</g>
<g>
	<path fill="#E3F4FB" stroke="#5DC1E5" stroke-width="2.0885" stroke-miterlimit="10" d="M215.4,137.6h-38.8c-3.7,0-6.7-3-6.7-6.7
		V92.1c0-3.7,3-6.7,6.7-6.7h38.8c3.7,0,6.7,3,6.7,6.7v38.8C222.2,134.6,219.2,137.6,215.4,137.6z"/>
	<g>
		<path fill="#5DC1E5" d="M183.1,98h7.3l3.6,12.9c0.9,3.2,1.6,6.9,1.6,6.9h0.1c0,0,0.7-3.7,1.6-6.9L201,98h7.5v25.7h-4.9V109
			c0-2.1,0.2-5.3,0.2-5.3h-0.1c0,0-0.6,3-1.1,4.9l-4.4,15.2h-5l-4.3-15.2c-0.5-1.9-1.1-4.9-1.1-4.9h-0.1c0,0,0.2,3.2,0.2,5.3v14.8
			h-4.8V98z"/>
	</g>
</g>
<g>
	<path fill="#E3F4FB" stroke="#5DC1E5" stroke-width="2.0885" stroke-miterlimit="10" d="M278.7,137.6h-38.8c-3.7,0-6.7-3-6.7-6.7
		V92.1c0-3.7,3-6.7,6.7-6.7h38.8c3.7,0,6.7,3,6.7,6.7v38.8C285.5,134.6,282.4,137.6,278.7,137.6z"/>
	<g>
		<path fill="#5DC1E5" d="M246.4,98h7.3l3.6,12.9c0.9,3.2,1.6,6.9,1.6,6.9h0.1c0,0,0.7-3.7,1.6-6.9l3.6-12.9h7.5v25.7h-4.9V109
			c0-2.1,0.2-5.3,0.2-5.3H267c0,0-0.6,3-1.1,4.9l-4.4,15.2h-5l-4.3-15.2c-0.5-1.9-1.1-4.9-1.1-4.9H251c0,0,0.2,3.2,0.2,5.3v14.8
			h-4.8V98z"/>
	</g>
</g>
<g>
	<path fill="#E3F4FB" stroke="#5DC1E5" stroke-width="2.0885" stroke-miterlimit="10" d="M342.4,137.6h-38.8c-3.7,0-6.7-3-6.7-6.7
		V92.1c0-3.7,3-6.7,6.7-6.7h38.8c3.7,0,6.7,3,6.7,6.7v38.8C349.1,134.6,346.1,137.6,342.4,137.6z"/>
	<g>
		<path fill="#5DC1E5" d="M310,98h7.3l3.6,12.9c0.9,3.2,1.6,6.9,1.6,6.9h0.1c0,0,0.7-3.7,1.6-6.9l3.6-12.9h7.5v25.7h-4.9V109
			c0-2.1,0.2-5.3,0.2-5.3h-0.1c0,0-0.6,3-1.1,4.9l-4.4,15.2h-5l-4.3-15.2c-0.5-1.9-1.1-4.9-1.1-4.9h-0.1c0,0,0.2,3.2,0.2,5.3v14.8
			H310V98z"/>
	</g>
</g>
</svg>
