<?xml version="1.0" encoding="utf-8"?>
<!-- Generator: Adobe Illustrator 18.1.1, SVG Export Plug-In . SVG Version: 6.00 Build 0)  -->
<svg version="1.1" id="Layer_1" xmlns="http://www.w3.org/2000/svg" xmlns:xlink="http://www.w3.org/1999/xlink" x="0px" y="0px"
	 viewBox="0 0 44.4 44" enable-background="new 0 0 44.4 44" xml:space="preserve">
<g opacity="0.75">
	<circle fill="#FFFFFF" cx="22.2" cy="22" r="21.4"/>
	<circle fill="none" stroke="#5DC1E5" stroke-width="0.4586" stroke-miterlimit="10" cx="22.2" cy="22" r="19.9"/>
	<g>
		<path fill="#5DC1E5" d="M32.7,13.9c0,0-1.2-5.5-1.2-6.3c0,0-2.7,3.5-9.3,6.7c1.6,2.2,3,4.2,3,4.2c0.3,0.4,0.5,0.8,0.7,1.2
			c1-0.7,3-2.4,3.7-5.8c0,0-0.3,4.2-3,7.3c1.5,4.2-0.1,7.2-0.1,7.2c-0.2,0.4-0.5,0.8-0.8,1.1c1.8-0.2,5.3-1.1,7.1-5.1
			C32.8,24.4,34.8,21.3,32.7,13.9z"/>
		<path fill="#5DC1E5" d="M19.9,32.2c-0.2,0-0.7,0-1.2,0c-1.7,2.2-2.2,2.1-6.3,3l1.5,2.1c0,0,4.1,0,6.2-4.5
			C20,32.5,19.9,32.3,19.9,32.2z"/>
		<path fill="#5DC1E5" d="M17.9,9.2c0,0-3.5,6-5.2,10.4c0,0-3.3,7.3,2,11.2c0,0,1.8,1,4.9,0.8c0,0-2-16.1-1.3-17.3l2.2,17.2l0,0
			c0,0,0.7,4,5.1,5.8l1.1-2.9c0,0-3.4-0.8-4.3-3.3c0,0,2.4-0.7,3.3-2.6c0,0,2.3-4.5-1.3-10C24.6,18.5,17.8,9.3,17.9,9.2z"/>
	</g>
</g>
</svg>
