<?xml version="1.0" encoding="utf-8"?>
<!-- Generator: Adobe Illustrator 18.1.1, SVG Export Plug-In . SVG Version: 6.00 Build 0)  -->
<svg version="1.1" id="Layer_1" xmlns="http://www.w3.org/2000/svg" xmlns:xlink="http://www.w3.org/1999/xlink" x="0px" y="0px"
	 viewBox="0 0 41.3 49.3" enable-background="new 0 0 41.3 49.3" xml:space="preserve">
<g opacity="0.75">
	<g>
		<path fill="#FFFFFF" d="M20.9,48.1c9.4-4,15.8-16.9,15.8-16.9c4-7.8,3.8-24,3.8-24C26.4,5.1,20.7,1.1,20.7,1.1h0
			c0,0-5.6,4-19.8,6.2c0,0-0.2,16.3,3.8,24c0,0,6.4,12.9,15.8,16.9H20.9z"/>
		<path fill="none" stroke="#5DC1E5" stroke-width="0.5284" stroke-miterlimit="10" d="M20.9,46.6c8.8-3.7,14.8-15.7,14.8-15.7
			c3.7-7.2,3.5-22.4,3.5-22.4C26,6.4,20.7,2.7,20.7,2.7h0c0,0-5.2,3.8-18.5,5.7c0,0-0.2,15.2,3.5,22.4c0,0,6,12,14.8,15.7H20.9z"/>
	</g>
	<polyline fill="none" stroke="#5DC1E5" stroke-width="3.6987" stroke-linecap="round" stroke-miterlimit="10" points="13.4,23.6 
		18.6,29.9 31.7,16.7 	"/>
</g>
</svg>
